<svg width="1013" height="611" viewBox="0 0 1013 611" fill="none" xmlns="http://www.w3.org/2000/svg">
<path d="M689.164 348.377L697.85 346.875C698.683 346.729 699.51 346.551 700.343 346.4C686.594 337.862 676.158 324.899 670.747 309.642C665.337 294.385 665.275 277.74 670.571 262.443C675.867 247.146 686.206 234.106 699.891 225.465C713.575 216.825 729.79 213.098 745.871 214.897L734.486 242L761.46 218.437C761.523 218.452 761.584 218.473 761.644 218.498C770.477 221.611 778.61 226.433 785.58 232.69C792.55 238.947 798.22 246.517 802.266 254.966C806.311 263.415 808.654 272.579 809.16 281.934C809.665 291.29 808.324 300.653 805.213 309.489C804.762 310.774 804.225 312.001 803.709 313.243C811.324 309.415 818.629 304.959 824.586 299.254C836.646 287.692 843.254 271.737 850.639 252.081C865.268 213.128 879.353 173.612 892.876 134.009C877.961 125.935 866.412 112.804 860.305 96.9763C854.197 81.1486 853.93 63.6607 859.552 47.6539C860.277 45.5945 861.116 43.6115 862.006 41.6639C862.229 41.1765 862.453 40.6922 862.685 40.2118C863.589 38.3446 864.544 36.5152 865.591 34.7594C865.763 34.4716 865.955 34.2023 866.129 33.9176C867.041 32.4372 868.003 31.0007 869.015 29.608C869.391 29.0851 869.767 28.5637 870.156 28.0532C871.302 26.5536 872.489 25.0944 873.741 23.7014C874.16 23.2353 874.603 22.7998 875.033 22.3457C875.994 21.3305 876.983 20.346 877.997 19.3921C878.532 18.8899 879.061 18.3841 879.61 17.8997C879.751 17.7755 879.882 17.6398 880.024 17.5166C880.031 17.5257 880.037 17.5354 880.043 17.5444C892.604 6.59375 908.603 0.392341 925.259 0.017995C941.915 -0.35635 958.176 5.12002 971.216 15.4953L956.401 50.7654L983.068 27.4826C992.401 39.378 997.69 53.9455 998.164 69.06C998.638 84.1745 994.272 99.0452 985.704 111.503C985.728 111.511 985.754 111.518 985.778 111.527C985.487 111.955 985.156 112.347 984.857 112.767C984.295 113.556 983.719 114.331 983.13 115.092C982.372 116.068 981.586 117.012 980.782 117.942C980.176 118.644 979.578 119.353 978.947 120.028C978.023 121.016 977.056 121.952 976.082 122.883C975.514 123.425 974.97 123.995 974.385 124.518C972.853 125.888 971.267 127.188 969.628 128.418C969.053 128.848 968.447 129.228 967.86 129.641C966.709 130.451 965.553 131.248 964.358 131.987C963.617 132.446 962.856 132.865 962.099 133.296C961.004 133.92 959.901 134.525 958.774 135.089C957.976 135.49 957.172 135.87 956.359 136.241C955.202 136.768 954.031 137.257 952.848 137.722C952.054 138.034 951.264 138.35 950.459 138.634C949.131 139.102 947.783 139.508 946.428 139.898C945.744 140.094 945.07 140.319 944.38 140.496C942.346 141.014 940.29 141.456 938.21 141.795C937.818 141.859 937.42 141.883 937.028 141.94C935.303 142.191 933.57 142.393 931.822 142.517C931.071 142.57 930.316 142.578 929.561 142.607C928.149 142.662 926.735 142.69 925.314 142.66C924.485 142.642 923.656 142.599 922.825 142.552C921.441 142.474 920.056 142.353 918.669 142.19C917.849 142.095 917.032 142.001 916.211 141.877C914.726 141.651 913.242 141.356 911.758 141.034C911.661 141.012 911.563 141 911.465 140.978C905.758 157.686 899.944 174.358 894.025 190.994C901.244 184.499 909.714 179.549 918.914 176.447C928.114 173.345 937.851 172.156 947.527 172.954C957.203 173.752 966.614 176.52 975.182 181.087C983.75 185.655 991.295 191.926 997.354 199.515L972.7 226.792L1006.08 213.461C1014.19 230.47 1015.21 250.004 1008.93 267.77C1006.76 274.012 1003.71 279.915 999.875 285.302C991.628 296.972 980.066 305.894 966.688 310.911C953.311 315.927 938.735 316.806 924.852 313.433C910.97 310.061 898.42 302.593 888.832 291.998C879.243 281.403 873.058 268.17 871.079 254.015C870.452 255.691 869.846 257.388 869.217 259.063C862.7 276.404 854.594 297.985 838.313 313.588C827.277 324.164 813.699 330.874 800.672 336.546C792.189 340.24 783.593 343.654 774.885 346.79C765.203 352.663 754.265 356.15 742.972 356.965C729.231 360.784 715.317 363.972 701.272 366.433L692.515 367.943C684.645 369.292 676.575 370.681 668.566 372.281C669.719 372.623 670.874 372.95 672.021 373.354C686.292 378.379 698.596 387.813 707.156 400.293C715.716 412.773 720.087 427.653 719.64 442.782L664.739 459.641L714.417 467.533C709.873 478.707 702.572 488.546 693.196 496.131C683.82 503.716 672.676 508.8 660.803 510.908C648.931 513.016 636.718 512.079 625.306 508.185C613.894 504.29 603.655 497.566 595.544 488.639C596.049 490.329 596.555 492.017 597.063 493.702C598.072 497.051 599.072 500.38 600.033 503.678C613.106 548.616 607.48 583.966 584.189 603.21L571.551 587.905C594.219 569.172 587.186 530.57 580.98 509.223C580.037 505.985 579.052 502.714 578.061 499.425C569.547 471.127 559.895 439.052 572.396 409.577C591.236 365.153 645.534 355.851 689.164 348.377Z" fill="#F2F2F2"/>
<path d="M673.073 608.975H288.409C275.795 608.975 263.697 603.962 254.778 595.038C245.858 586.115 240.847 574.012 240.847 561.392V385.08C240.847 382.52 241.369 379.986 242.379 377.634C243.39 375.282 244.87 373.16 246.727 371.399L450.56 178.096C458.71 170.368 469.512 166.06 480.741 166.06C491.97 166.06 502.772 170.368 510.921 178.096L705.266 362.4C710.121 367.004 713.987 372.549 716.63 378.698C719.272 384.846 720.635 391.468 720.635 398.161V561.392C720.635 567.64 719.404 573.828 717.014 579.601C714.624 585.374 711.121 590.62 706.704 595.038C702.287 599.457 697.044 602.962 691.274 605.353C685.503 607.744 679.318 608.975 673.073 608.975Z" fill="#3F3D56"/>
<path opacity="0.1" d="M240.847 387.975H716.636V580.243C716.636 587.863 713.611 595.171 708.225 600.559C702.839 605.948 695.534 608.975 687.917 608.975H269.567C261.95 608.975 254.645 605.948 249.259 600.559C243.873 595.171 240.847 587.863 240.847 580.243V387.975Z" fill="black"/>
<path d="M630.993 236.475H329.489C315.036 236.475 303.32 248.197 303.32 262.656V564.294C303.32 578.753 315.036 590.475 329.489 590.475H630.993C645.447 590.475 657.163 578.753 657.163 564.294V262.656C657.163 248.197 645.447 236.475 630.993 236.475Z" fill="#045EFF"/>
<path opacity="0.1" d="M657.163 395.925V590.475H303.32V395.925L480.241 481.475L657.163 395.925Z" fill="black"/>
<path d="M480.241 492.475L253.548 382.858C252.146 382.18 250.595 381.869 249.04 381.955C247.485 382.04 245.977 382.52 244.657 383.348C243.338 384.176 242.251 385.325 241.497 386.689C240.743 388.052 240.348 389.585 240.348 391.143V579.743C240.348 583.516 241.09 587.252 242.534 590.738C243.977 594.224 246.093 597.391 248.759 600.059C251.426 602.727 254.592 604.844 258.077 606.288C261.561 607.732 265.296 608.475 269.067 608.475H691.415C695.187 608.475 698.922 607.732 702.406 606.288C705.89 604.844 709.056 602.727 711.723 600.059C714.39 597.391 716.506 594.224 717.949 590.738C719.392 587.252 720.135 583.516 720.135 579.743V394.374C720.135 392.472 719.653 390.602 718.733 388.938C717.813 387.275 716.486 385.872 714.876 384.862C713.266 383.851 711.426 383.266 709.529 383.162C707.631 383.057 705.738 383.436 704.027 384.264L480.241 492.475Z" fill="#3F3D56"/>
<path d="M432.762 268.975H333.806V282.975H432.762V268.975Z" fill="#F2F2F2"/>
<path d="M619.679 319.975H325.81V327.975H619.679V319.975Z" fill="#F2F2F2"/>
<path d="M619.679 346.975H325.81V354.975H619.679V346.975Z" fill="#F2F2F2"/>
<path d="M619.679 373.975H325.81V381.975H619.679V373.975Z" fill="#F2F2F2"/>
<path d="M0 485.336C0 544.297 36.9722 592.007 82.6627 592.007L0 485.336Z" fill="#46455B"/>
<path d="M82.6626 592.007C82.6626 532.384 123.921 484.138 174.909 484.138L82.6626 592.007Z" fill="#045EFF"/>
<path d="M29.9502 490.681C29.9502 546.687 53.5267 592.007 82.6627 592.007L29.9502 490.681Z" fill="#045EFF"/>
<path d="M82.6626 592.007C82.6626 515.822 130.351 454.174 189.286 454.174L82.6626 592.007Z" fill="#46455B"/>
<path d="M65.2729 592.759C65.2729 592.759 76.9959 592.397 80.5289 589.88C84.0619 587.364 98.5617 584.358 99.4382 588.395C100.315 592.431 117.056 608.471 103.82 608.578C90.5853 608.685 73.0679 606.515 69.5417 604.366C66.0155 602.217 65.2729 592.759 65.2729 592.759Z" fill="#A8A8A8"/>
<path opacity="0.2" d="M104.057 607.173C90.8215 607.279 73.3041 605.11 69.7779 602.961C67.0925 601.325 66.0224 595.452 65.6643 592.743C65.4164 592.754 65.2729 592.759 65.2729 592.759C65.2729 592.759 66.0154 602.217 69.5417 604.366C73.0679 606.515 90.5853 608.684 103.82 608.578C107.641 608.547 108.961 607.187 108.888 605.173C108.357 606.39 106.9 607.15 104.057 607.173Z" fill="black"/>
<path d="M719.394 162.754C718.793 168.108 714.711 172.422 713.199 177.593C710.922 185.376 714.859 193.729 720.244 199.791C724.589 204.63 729.851 208.559 735.724 211.349C741.598 214.14 747.967 215.736 754.462 216.045C756.37 216.213 758.293 216.003 760.12 215.428C761.751 214.772 763.22 213.767 764.424 212.485C768.48 208.412 770.657 202.767 771.524 197.083C772.392 191.4 772.055 185.609 771.715 179.87C771.717 178.683 771.501 177.506 771.08 176.398C770.527 175.341 769.767 174.407 768.846 173.65C765.926 170.971 762.71 168.633 759.26 166.684C757.701 165.985 756.326 164.932 755.244 163.609C754.592 162.476 754.17 161.225 754.002 159.928L752.943 154.529C752.754 152.973 752.223 151.478 751.388 150.152C749.517 147.628 745.939 147.284 742.8 147.161L731.299 146.709C727.722 146.569 723.009 145.543 719.517 146.246C716.256 146.902 717.339 149.908 717.931 152.646C718.79 155.951 719.281 159.341 719.394 162.754Z" fill="#C56D45"/>
<path opacity="0.1" d="M719.394 162.754C718.793 168.108 714.711 172.422 713.199 177.593C710.922 185.376 714.859 193.729 720.244 199.791C724.589 204.63 729.851 208.559 735.724 211.349C741.598 214.14 747.967 215.736 754.462 216.045C756.37 216.213 758.293 216.003 760.12 215.428C761.751 214.772 763.22 213.767 764.424 212.485C768.48 208.412 770.657 202.767 771.524 197.083C772.392 191.4 772.055 185.609 771.715 179.87C771.717 178.683 771.501 177.506 771.08 176.398C770.527 175.341 769.767 174.407 768.846 173.65C765.926 170.971 762.71 168.633 759.26 166.684C757.701 165.985 756.326 164.932 755.244 163.609C754.592 162.476 754.17 161.225 754.002 159.928L752.943 154.529C752.754 152.973 752.223 151.478 751.388 150.152C749.517 147.628 745.939 147.284 742.8 147.161L731.299 146.709C727.722 146.569 723.009 145.543 719.517 146.246C716.256 146.902 717.339 149.908 717.931 152.646C718.79 155.951 719.281 159.341 719.394 162.754Z" fill="black"/>
<path d="M792.55 403.765C790.921 421.637 789.292 439.506 787.662 457.373C786.387 471.434 785.087 485.552 782.585 499.432C781.721 504.214 780.709 508.973 779.508 513.69C776.167 526.787 771.32 539.588 769.757 553.015C769.707 553.402 769.666 553.797 769.625 554.192C769.45 557.161 768.889 560.095 767.955 562.919C767.173 564.968 765.972 566.837 765.124 568.862C763.437 572.913 763.215 577.391 763.009 581.779C757.076 578.44 750.58 576.219 743.845 575.226C740.595 574.74 736.974 574.394 734.761 571.966C732.309 569.282 732.58 565.174 732.991 561.568C734.283 550.373 735.572 539.182 736.859 527.997C737.279 523.185 738.096 518.416 739.303 513.739C739.747 512.183 740.282 510.652 740.825 509.121C741.574 507.013 742.331 504.906 742.899 502.741C743.717 499.243 744.289 495.691 744.61 492.113C745.935 480.851 747.531 469.614 748.93 458.361L749.004 457.768C751.103 440.711 752.699 423.571 752.238 406.391C752.172 403.847 752.065 401.303 751.901 398.751C751.67 395.055 751.333 393.096 754.394 390.782C757.776 388.23 762.228 386.444 766.095 384.773C768.177 383.867 791.102 375.726 791.637 377.512C792.712 381.323 793.277 385.259 793.315 389.218C793.332 394.078 793.076 398.934 792.55 403.765Z" fill="#605D82"/>
<path opacity="0.1" d="M782.585 499.432C781.721 504.214 780.709 508.973 779.508 513.69C776.167 526.787 771.32 539.588 769.757 553.015C769.708 553.402 769.666 553.797 769.625 554.192C759.405 539.588 750.798 523.881 740.825 509.121C741.574 507.013 742.331 504.906 742.899 502.741C743.717 499.243 744.289 495.691 744.61 492.113C745.935 480.851 747.531 469.614 748.93 458.361L749.004 457.768C749.59 460.157 750.425 462.478 751.498 464.691C758.196 478.308 774.11 485.19 781.894 498.221C782.133 498.625 782.363 499.028 782.585 499.432Z" fill="black"/>
<path d="M699.657 379.702C699.994 390.623 701.742 401.445 703.486 412.231L707.083 434.485C709.053 446.664 711.103 459.092 716.864 470.001C721.173 478.161 727.383 485.124 733 492.446C746.809 510.444 757.183 530.832 770.277 549.358C774.083 554.743 779.524 560.566 786.019 559.442C790.282 558.704 793.379 555.153 796.73 552.415C800.681 549.187 805.442 546.826 808.551 542.78C811.659 538.734 812.268 532.009 808.057 529.129C806.533 528.285 804.915 527.623 803.237 527.156C796.708 524.672 792.482 518.294 789.794 511.845C787.105 505.395 785.476 498.46 781.893 492.462C774.11 479.43 758.193 472.548 751.493 458.927C747.741 451.299 747.383 442.505 747.097 434.008L746.365 412.346C746.285 409.977 746.223 407.513 747.185 405.347C749.748 399.581 757.486 399.044 763.751 398.313C770.862 397.479 777.751 395.305 784.052 391.905C787.661 389.956 791.186 387.47 793.117 383.85C794.878 380.548 795.121 376.674 795.328 372.936L797.497 333.679C797.684 330.301 797.854 326.809 796.664 323.643C793.676 315.692 783.641 313.094 775.16 313.473C759.377 314.179 744.806 320.972 729.925 325.559C726.239 326.722 722.497 327.698 718.713 328.484C715.373 329.155 711.331 328.877 708.146 329.951C702.481 331.862 702.625 344.256 701.821 349.397C700.162 359.409 699.438 369.555 699.657 379.702Z" fill="#605D82"/>
<path d="M783.877 561.088C785.269 562.492 785.724 564.549 786.086 566.493C788.096 577.276 789.142 588.217 789.211 599.186C789.118 600.209 789.322 601.238 789.799 602.148C790.191 602.691 790.722 603.118 791.336 603.384C795.359 605.302 800.027 602.629 803.379 599.691C809.593 594.246 814.85 586.937 815.203 578.68C815.139 576.554 815.213 574.425 815.426 572.308C815.972 569.2 817.786 566.491 819.385 563.771C822.106 559.139 824.3 554.218 825.927 549.099C826.538 547.175 826.945 544.754 825.438 543.411C824.904 542.993 824.297 542.677 823.648 542.48L805.477 535.73C803.902 535.146 799.984 545.215 799.362 546.316C797.841 549.008 796.329 550.537 793.277 551.158C790.162 551.793 786.453 550.882 783.546 552.437C778.629 555.068 781.093 558.279 783.877 561.088Z" fill="#535070"/>
<path d="M755.839 567.302C755.501 566.63 755.031 566.033 754.456 565.547C753.615 565.014 752.659 564.689 751.666 564.599C748.207 564.012 744.107 563.625 741.719 566.197C739.481 568.609 739.866 572.537 737.994 575.244C737.402 576.101 736.599 576.807 736.086 577.713C735.448 579.099 735.161 580.62 735.248 582.142C735.152 586.338 735.055 590.54 735.345 594.726C735.588 598.234 736.179 601.91 738.372 604.659C741.891 609.07 748.239 609.704 753.873 609.99L758.436 610.222C759.693 610.375 760.968 610.258 762.176 609.879C762.924 609.533 763.594 609.041 764.149 608.431C764.703 607.821 765.129 607.106 765.402 606.328C767.777 600.422 764.015 594.058 761.698 588.129C759.035 581.313 759.513 573.746 755.839 567.302Z" fill="#535070"/>
<path d="M718.072 132.583C718.017 131.984 718.105 131.381 718.329 130.823C718.997 129.641 720.743 129.963 722.059 130.295C727.354 131.63 732.932 130.421 738.383 130.733C743.835 131.045 749.975 133.772 751.071 139.123C755.028 136.317 758.438 132.811 761.135 128.777C762.648 126.512 763.967 123.918 763.761 121.202C763.464 117.284 760.178 114.354 757.135 111.869L748.066 104.462C746.876 103.367 745.501 102.493 744.006 101.879C741.911 101.163 739.627 101.504 737.414 101.506C730.812 101.51 723.774 98.504 717.902 101.524C715.449 102.785 713.603 104.946 711.824 107.054L703.729 116.64C703.12 117.251 702.675 118.006 702.436 118.835C702.205 120.005 702.806 121.16 703.015 122.334C703.398 124.475 702.476 126.761 703.185 128.817C704.361 132.231 708.505 132.715 711.038 134.672C711.982 135.401 713.462 137.874 714.587 137.843C716.616 137.789 718.02 134.161 718.072 132.583Z" fill="#1F1F1F"/>
<path d="M731.807 160.84C746.122 160.84 757.727 149.23 757.727 134.908C757.727 120.586 746.122 108.977 731.807 108.977C717.492 108.977 705.887 120.586 705.887 134.908C705.887 149.23 717.492 160.84 731.807 160.84Z" fill="#C56D45"/>
<path d="M737.877 191.66C736.998 189.14 735.339 186.965 733.141 185.452C730.943 183.939 728.32 183.165 725.654 183.244C724.891 183.386 724.102 183.286 723.399 182.959C723.001 182.653 722.683 182.255 722.472 181.8C720.896 178.964 719.629 175.967 718.693 172.861C718.279 171.489 717.714 169.87 716.326 169.514C715.751 169.438 715.167 169.521 714.636 169.752C714.104 169.983 713.646 170.355 713.309 170.827C712.65 171.776 711.929 172.682 711.152 173.538C707.892 176.454 702.114 173.796 698.654 176.472C698.088 176.909 697.622 177.468 697.028 177.866C696.434 178.224 695.794 178.498 695.125 178.682C688.444 180.865 681.894 183.431 675.508 186.369C677.809 200.236 680.168 214.344 685.563 227.324C688.13 233.5 691.039 239.55 693.095 245.915C697.65 260.019 697.852 275.109 697.904 289.93C697.939 300.074 697.888 310.435 694.608 320.034C693.725 322.155 693.103 324.375 692.755 326.646C692.557 328.934 693.222 331.456 695.075 332.811C696.149 333.513 697.377 333.945 698.655 334.069C704.339 334.903 710.069 333.39 715.666 332.093C730.668 328.617 745.968 326.628 761.238 324.645L786.827 321.321C788.661 321.196 790.456 320.732 792.121 319.952C796.803 317.387 797.248 310.34 794.34 305.862C792.946 303.714 790.979 301.953 789.808 299.676C788.636 297.4 788.537 294.216 790.553 292.64C794.655 289.432 793.431 283.482 793.627 278.277C794.174 263.725 794.1 249.167 793.405 234.603C793.199 231.588 793.151 228.565 793.26 225.545C793.715 220.428 794.66 215.366 796.083 210.43L803.858 179.802C801.827 176.591 797.938 174.554 794.253 173.629C790.569 172.704 786.732 172.431 783.104 171.307C775.671 169.002 769.053 163.155 761.291 163.7C760.704 163.71 760.126 163.851 759.6 164.113C757.85 165.105 758.127 167.629 758.015 169.639C757.767 174.086 754.498 177.802 750.888 180.408C747.277 183.014 743.154 184.914 739.838 187.886C739.251 188.328 738.77 188.897 738.43 189.55C738.091 190.203 737.902 190.924 737.877 191.66Z" fill="#07A0E8"/>
<path d="M635.173 220.711C633.454 221.827 631.628 222.767 629.721 223.518C627.854 224.073 626.09 224.93 624.498 226.054C623.765 226.688 623.15 227.448 622.682 228.298C621.805 229.855 621.361 231.619 621.398 233.405C621.434 235.192 621.949 236.936 622.889 238.456C623.829 239.976 625.16 241.215 626.742 242.045C628.324 242.874 630.1 243.264 631.884 243.172C634.255 242.907 636.559 242.219 638.688 241.143L656.97 233.217C660.064 231.876 663.407 230.304 664.869 227.264C665.04 226.98 665.103 226.645 665.047 226.319C664.9 225.974 664.633 225.693 664.297 225.529C660.173 222.85 656.567 219.448 653.651 215.486C652.901 214.468 651.984 212.062 650.923 211.451C647.054 209.222 638.271 218.7 635.173 220.711Z" fill="#C56D45"/>
<path d="M830.614 214.208L837.355 221.911C838.802 223.564 840.25 225.22 841.569 226.977C844.808 231.443 847.406 236.341 849.289 241.527C850.754 245.373 851.97 249.47 851.458 253.554C851.118 255.648 850.553 257.698 849.772 259.671C848.537 263.463 847.005 267.153 845.192 270.706C843.667 273.405 841.944 275.988 840.038 278.433C834.82 285.353 829.11 291.887 822.952 297.985C820.648 300.267 819.682 303.957 818.679 307.042C816.828 312.732 812.426 317.163 808.169 321.365C806.801 322.811 805.289 324.112 803.656 325.25C801.21 326.826 798.352 327.641 795.444 327.59C794.17 327.599 792.91 327.338 791.745 326.824C788.831 325.44 787.351 322.07 787.047 318.858C786.776 315.943 787.264 313.007 788.464 310.337C792.332 301.765 802.264 298.051 809.285 291.797C813.401 288.129 816.549 283.523 819.654 278.966C821.763 276.121 823.524 273.034 824.899 269.77C826.466 265.584 825.856 260.63 827.226 256.375C827.805 254.577 828.834 252.953 829.457 251.17C830.079 249.386 830.236 247.269 829.147 245.725C828.326 244.744 827.278 243.977 826.095 243.49C821.611 241.213 816.588 238.282 815.729 233.324C815.387 230.575 816.105 227.798 817.737 225.56C819.364 223.351 821.264 221.359 823.393 219.63C825.354 217.895 828.653 215.943 830.614 214.208Z" fill="#C56D45"/>
<path d="M630.847 231.464C629.657 229.059 628.169 226.605 625.767 225.409C624.603 224.903 623.348 224.64 622.079 224.634C620.809 224.629 619.552 224.882 618.384 225.378C616.055 226.382 613.875 227.701 611.904 229.298L606.094 233.582C604.777 234.447 603.612 235.523 602.645 236.768C601.728 238.277 601.118 239.953 600.849 241.698C599.836 245.68 599.527 249.807 599.935 253.895C600.857 260.449 604.807 266.171 609.155 271.161C611.871 274.278 615.226 277.425 619.358 277.558C621.141 277.615 623.125 276.912 623.867 275.288C624.124 274.644 624.26 273.958 624.269 273.265C624.716 265.955 622.102 258.814 619.053 252.155C618.081 250.411 617.507 248.474 617.371 246.482C617.35 246.147 617.437 245.813 617.62 245.532C617.883 245.258 618.234 245.086 618.612 245.047C622.784 244.222 629.97 247.464 632.897 242.829C634.795 239.824 632.195 234.189 630.847 231.464Z" fill="#C56D45"/>
<path d="M716.713 124.424C716.657 123.825 716.745 123.221 716.97 122.663C717.638 121.481 719.383 121.803 720.7 122.135C725.994 123.47 731.573 122.262 737.024 122.574C742.475 122.886 748.615 125.612 749.711 130.963C753.668 128.157 757.079 124.651 759.776 120.618C761.289 118.353 762.607 115.758 762.401 113.042C762.104 109.124 758.818 106.194 755.776 103.709L746.707 96.3022C745.517 95.2077 744.142 94.3333 742.646 93.7194C740.552 93.0034 738.268 93.3445 736.055 93.3459C729.453 93.3502 722.414 90.3443 716.543 93.3638C714.09 94.6251 712.244 96.7866 710.464 98.8942L702.37 108.48C701.761 109.091 701.316 109.846 701.076 110.675C700.846 111.845 701.447 113 701.656 114.174C702.038 116.315 701.116 118.601 701.825 120.658C703.002 124.072 707.146 124.555 709.679 126.512C710.623 127.242 712.102 129.714 713.227 129.684C715.257 129.629 716.66 126.001 716.713 124.424Z" fill="#1F1F1F"/>
<path d="M661.661 195.488C660.615 196.163 659.696 197.019 658.948 198.015C657.998 199.452 657.804 201.267 656.988 202.785C655.241 206.032 651.156 207.188 648.607 209.852C648.202 210.218 647.92 210.701 647.801 211.234C647.789 211.957 648.031 212.662 648.486 213.224L660.777 232.555C664.87 232.916 668.796 230.351 672.89 230.691C674.418 230.819 675.983 231.347 677.449 230.895C678.498 230.429 679.482 229.827 680.374 229.105C682.817 227.56 686.07 227.38 688.119 225.341C690.086 223.385 690.337 220.324 690.313 217.549C690.346 215.14 690.101 212.735 689.583 210.381C687.773 202.961 682.1 197.267 678.544 190.694C676.813 187.494 675.871 185.621 672.207 187.818C668.523 190.027 665.128 192.952 661.661 195.488Z" fill="#07A0E8"/>
<path d="M810.936 185.712C813.246 187.213 815.328 189.038 817.12 191.131C818.992 193.546 820.053 196.502 821.851 198.973C823.595 201.368 825.968 203.223 827.946 205.429C830.945 208.773 832.976 212.854 834.971 216.88C830.098 223.237 824.786 229.244 819.072 234.857C818.436 235.607 817.598 236.158 816.658 236.445C816.018 236.512 815.372 236.421 814.776 236.178C814.181 235.935 813.655 235.548 813.245 235.053C812.36 234.123 811.732 232.978 810.886 232.013C808.889 229.952 806.227 228.664 803.371 228.377C800.541 228.104 797.694 228.064 794.857 228.26C794.235 228.329 793.605 228.223 793.039 227.954C792.618 227.664 792.277 227.272 792.047 226.816C788.719 221.15 789.789 214.038 790.963 207.572L793.657 192.737C794.048 189.904 794.801 187.132 795.9 184.492C796.92 182.31 799.202 178.61 802.008 179.263C804.836 179.922 808.557 184 810.936 185.712Z" fill="#07A0E8"/>
<path d="M317.813 283.124C340.447 283.124 358.795 264.734 358.795 242.049C358.795 219.365 340.447 200.975 317.813 200.975C295.18 200.975 276.832 219.365 276.832 242.049C276.832 264.734 295.18 283.124 317.813 283.124Z" fill="white"/>
<path d="M317.813 193.975C308.126 193.975 298.657 196.849 290.602 202.233C282.548 207.617 276.27 215.27 272.563 224.223C268.856 233.177 267.886 243.029 269.776 252.534C271.666 262.039 276.331 270.77 283.18 277.623C290.03 284.476 298.757 289.143 308.258 291.033C317.759 292.924 327.607 291.954 336.556 288.245C345.506 284.536 353.155 278.256 358.537 270.198C363.919 262.14 366.792 252.666 366.792 242.975C366.754 229.991 361.581 217.55 352.404 208.369C343.227 199.188 330.791 194.013 317.813 193.975ZM307.759 269.1L282.657 243.988L289.698 236.944L307.782 255.036L345.952 216.849L352.993 223.893L307.759 269.1L307.759 269.1Z" fill="#57B894"/>
</svg>
