<svg width="809" height="567" viewBox="0 0 809 567" fill="none" xmlns="http://www.w3.org/2000/svg">
<path d="M799.85 333.775C799.85 413.021 752.772 440.691 694.699 440.691C636.626 440.691 589.548 413.021 589.548 333.775C589.548 254.529 694.699 153.716 694.699 153.716C694.699 153.716 799.85 254.529 799.85 333.775Z" fill="#F2F2F2"/>
<path d="M690.868 428.569L691.945 362.246L736.763 280.198L692.114 351.843L692.598 322.022L723.487 262.66L692.726 314.131L693.596 260.496L726.673 213.237L693.734 252.062L694.278 153.716L690.859 283.908L691.14 278.537L657.511 227.028L690.601 288.848L687.467 348.748L687.374 347.158L648.606 292.952L687.256 352.775L686.864 360.266L686.794 360.379L686.826 360.994L678.877 512.966H689.498L690.772 434.469L729.328 374.793L690.868 428.569Z" fill="#3F3D56"/>
<path d="M581.135 261.649C581.135 364.14 520.248 399.926 445.14 399.926C370.032 399.926 309.144 364.14 309.144 261.649C309.144 159.157 445.14 28.7724 445.14 28.7724C445.14 28.7724 581.135 159.157 581.135 261.649Z" fill="#F2F2F2"/>
<path d="M440.186 384.248L441.578 298.472L499.543 192.355L441.797 285.016L442.423 246.448L482.372 169.673L442.588 236.241V236.242L443.714 166.875L486.493 105.752L443.891 155.967L444.595 28.7726L440.174 197.155L440.537 190.208L397.044 123.59L439.84 203.543L435.787 281.013L435.666 278.957L385.527 208.85L435.515 286.222L435.008 295.911L434.917 296.056L434.958 296.851L424.677 493.402H438.414L440.062 391.88L489.927 314.698L440.186 384.248Z" fill="#3F3D56"/>
<path d="M791.44 527.523C791.44 535.237 769.038 542.44 730.334 548.506C660.2 559.508 536.548 566.81 395.716 566.81C177.172 566.81 0 549.223 0 527.523C0 524.524 3.40069 521.586 9.84372 518.779C17.1102 515.597 28.2578 512.568 42.7604 509.737C72.6575 503.9 116.828 498.91 170.706 495.201C233.245 490.906 308.876 488.349 390.463 488.25C392.209 488.243 393.96 488.24 395.716 488.243C405.545 488.243 415.287 488.278 424.942 488.349C429.479 488.38 433.996 488.421 438.492 488.472C486.544 488.983 532.018 490.349 573.345 492.409C575.191 492.5 577.028 492.599 578.858 492.691C579.483 492.722 580.109 492.76 580.734 492.79C580.902 492.798 581.069 492.805 581.237 492.821C589.358 493.248 597.3 493.703 605.065 494.187C607.612 494.339 610.135 494.499 612.636 494.667C636.937 496.247 659.369 498.086 679.545 500.153C682.991 500.504 686.371 500.863 689.686 501.229C715.214 504.029 736.708 507.211 753.27 510.668C777.745 515.772 791.44 521.487 791.44 527.523Z" fill="#3F3D56"/>
<path opacity="0.1" d="M574.126 545.06C621.746 545.06 660.35 536.109 660.35 525.068C660.35 514.026 621.746 505.075 574.126 505.075C526.506 505.075 487.902 514.026 487.902 525.068C487.902 536.109 526.506 545.06 574.126 545.06Z" fill="black"/>
<path opacity="0.1" d="M791.44 527.523C791.44 535.237 769.038 542.44 730.334 548.506C701.07 545.309 680.811 538.403 680.811 530.407C680.811 520.45 712.195 512.194 753.27 510.668C777.746 515.772 791.44 521.487 791.44 527.523Z" fill="black"/>
<path opacity="0.1" d="M429.017 518.404C429.017 531.578 335.173 542.254 219.416 542.254C104.745 542.254 11.5808 531.781 9.8423 518.775C32.0993 509.053 90.6965 500.705 170.703 495.198C186.335 494.777 202.648 494.553 219.416 494.553C335.173 494.553 429.017 505.23 429.017 518.404Z" fill="black"/>
<path d="M390.462 0H42.7617V521.21H390.462V0Z" fill="#3F3D56"/>
<path d="M390.461 180.985H63.7918V340.926H390.461V180.985Z" fill="#1F1F1F"/>
<path d="M518.746 184.493H195.581V336.717H518.746V184.493Z" fill="#045EFF"/>
<path d="M287.588 206.941H215.385V232.896H287.588V206.941Z" fill="#12E6FF"/>
<path d="M498.942 252.538H233.26V259.553H498.942V252.538Z" fill="#12E6FF"/>
<path d="M498.942 270.776H233.26V277.791H498.942V270.776Z" fill="#12E6FF"/>
<path d="M498.942 289.015H233.26V296.03H498.942V289.015Z" fill="#12E6FF"/>
<path d="M498.942 307.254H233.26V314.269H498.942V307.254Z" fill="#12E6FF"/>
<path d="M138.099 58.9254H65.8948V84.8807H138.099V58.9254Z" fill="#07A0E8"/>
<path d="M349.453 104.522H83.7706V111.537H349.453V104.522Z" fill="#07A0E8"/>
<path d="M349.453 122.761H83.7706V129.776H349.453V122.761Z" fill="#07A0E8"/>
<path d="M349.453 141H83.7706V148.015H349.453V141Z" fill="#07A0E8"/>
<path d="M349.453 159.239H83.7706V166.254H349.453V159.239Z" fill="#07A0E8"/>
<path d="M140.903 357.06H68.699V383.015H140.903V357.06Z" fill="#07A0E8"/>
<path d="M352.256 402.657H86.5743V409.672H352.256V402.657Z" fill="#07A0E8"/>
<path d="M352.256 420.896H86.5743V427.911H352.256V420.896Z" fill="#07A0E8"/>
<path d="M352.256 439.135H86.5743V446.15H352.256V439.135Z" fill="#07A0E8"/>
<path d="M352.256 457.374H86.5743V464.389H352.256V457.374Z" fill="#07A0E8"/>
<path d="M551.327 107.172C551.327 107.172 565.741 125.652 563.939 138.724C562.137 151.795 593.667 120.694 593.667 120.694C593.667 120.694 582.857 98.1572 588.712 87.3394C594.568 76.5216 551.327 107.172 551.327 107.172Z" fill="#C56D45"/>
<path d="M601.775 481.287C601.775 481.287 620.693 502.021 617.54 506.529C614.387 511.036 558.984 528.164 552.678 527.263C546.372 526.361 543.219 521.854 545.472 520.502C547.724 519.15 562.137 511.487 562.137 511.487L574.299 497.514C574.299 497.514 583.308 492.556 583.308 489.851C583.308 487.147 601.775 481.287 601.775 481.287Z" fill="#2F2E41"/>
<path d="M569.794 504.275C569.794 504.275 562.587 515.994 561.236 516.445C559.885 516.896 567.992 533.123 567.992 533.123L586.911 527.263L597.27 518.699L595.018 506.98L569.794 504.275Z" fill="#FFB9B9"/>
<path d="M550.426 280.707L541.417 320.823C541.417 320.823 510.338 390.688 531.958 402.858L579.254 493.457L604.478 482.189L562.137 389.336L581.506 282.51L550.426 280.707Z" fill="#D0CDE1"/>
<path opacity="0.1" d="M550.426 280.707L541.417 320.823C541.417 320.823 510.338 390.688 531.958 402.858L579.254 493.457L604.478 482.189L562.137 389.336L581.506 282.51L550.426 280.707Z" fill="black"/>
<path d="M553.579 287.018H549.009C548.653 300.881 549.428 314.749 551.327 328.486C554.48 351.474 562.587 404.211 562.587 404.211C562.587 404.211 561.687 414.127 564.389 417.282C567.092 420.437 567.542 416.38 567.993 423.592C568.443 430.804 572.722 480.946 572.722 480.946C572.722 480.946 575.65 491.204 572.497 493.457C569.344 495.711 563.038 507.881 567.542 509.684C572.046 511.487 603.126 513.741 604.477 512.388C605.829 511.036 604.477 426.297 604.477 426.297C604.477 426.297 603.576 409.169 602.676 408.267C601.775 407.366 597.721 395.196 599.072 392.491C600.423 389.787 599.523 381.673 599.523 380.321C599.523 378.969 595.469 380.321 599.072 374.462C602.676 368.602 603.126 321.725 603.126 321.725C603.126 321.725 622.495 291.976 616.639 284.313L553.579 287.018Z" fill="#D0CDE1"/>
<path d="M563.939 113.933C580.357 113.933 593.667 100.614 593.667 84.1842C593.667 67.7543 580.357 54.4353 563.939 54.4353C547.52 54.4353 534.21 67.7543 534.21 84.1842C534.21 100.614 547.52 113.933 563.939 113.933Z" fill="#C56D45"/>
<path d="M593.667 115.736C593.667 115.736 575.65 120.244 568.443 131.061L562.137 132.414V138.724C562.137 138.724 550.426 176.135 553.129 192.362C555.831 208.589 553.129 240.141 548.624 248.705C544.12 257.269 542.769 259.072 545.021 262.678C547.273 266.284 550.426 278.454 548.174 283.863C545.922 289.271 548.174 294.68 568.894 296.033C589.613 297.385 618.891 297.385 618.891 290.173C618.891 282.961 617.09 262.678 618.891 257.269C620.693 251.86 621.594 248.254 620.693 243.296C619.792 238.338 622.495 182.897 622.495 182.897C622.495 182.897 622.945 127.455 593.667 115.736Z" fill="#07A0E8"/>
<path d="M551.327 255.015L526.553 291.976C526.553 291.976 500.428 315.865 509.887 326.683C519.347 337.501 544.12 295.131 544.12 295.131L571.146 264.481L551.327 255.015Z" fill="#FFB9B9"/>
<path d="M567.092 518.699C567.092 518.699 566.191 512.839 563.038 512.839C559.885 512.839 538.715 527.263 538.715 527.263C538.715 527.263 510.788 530.418 521.598 536.278C532.409 542.137 598.622 543.039 599.072 540.785C599.523 538.531 600.424 516.307 597.271 516.376C594.118 516.445 568.893 521.403 568.893 521.403L567.092 518.699Z" fill="#2F2E41"/>
<path d="M566.054 68.8152C564.997 69.3362 563.833 69.5994 562.656 69.5835C561.441 69.6526 559.991 69.5774 559.344 68.5454C559.039 67.8663 558.897 67.1248 558.931 66.3807C558.803 65.4254 558.484 64.5058 557.991 63.6775C557.498 62.8493 556.843 62.1296 556.065 61.5619C555.286 60.9942 554.401 60.5903 553.462 60.3745C552.523 60.1588 551.551 60.1358 550.603 60.3068C550.732 61.7966 551.185 63.2402 551.93 64.5365C550.613 64.9836 549.211 65.1206 547.833 64.937C546.454 64.7535 545.137 64.2542 543.983 63.478L543.525 69.5496C541.91 70.3224 539.84 70.4836 538.43 69.3776C537.021 68.2716 536.909 65.6759 538.502 64.8586C536.534 64.4478 534.126 63.5651 533.981 61.5578C533.849 59.7263 535.792 58.3858 536.15 56.5847C536.442 55.1158 535.637 53.5192 536.206 52.1341C536.955 50.3146 539.671 49.8475 540.216 47.9571C540.493 46.9943 540.094 45.9645 540.189 44.9671C540.439 42.3554 543.72 41.2711 546.338 41.4195C548.955 41.5679 551.812 42.2635 554.036 40.8738C555.114 40.2 555.867 39.1215 556.814 38.2733C558.124 37.1492 559.753 36.4642 561.472 36.3147C563.191 36.1651 564.913 36.5585 566.397 37.4394C567.45 38.0945 568.369 39.0024 569.543 39.4005C571.945 40.2154 574.452 38.6736 576.964 38.3182C577.882 38.1607 578.825 38.2138 579.72 38.4733C580.615 38.7328 581.44 39.192 582.133 39.8165C582.805 40.4631 583.245 41.3138 583.384 42.2363C583.523 43.1589 583.354 44.1016 582.903 44.918C584.376 44.6689 585.938 44.428 587.327 44.9804C588.716 45.5328 589.777 47.197 589.135 48.5473C588.896 48.9013 588.707 49.2868 588.574 49.6927C588.444 50.4783 589.2 51.15 589.963 51.3753C590.726 51.6005 591.555 51.5584 592.302 51.8321C595.39 52.9628 594.649 57.9021 597.079 60.1181C597.913 60.7248 598.794 61.2638 599.713 61.7302C600.92 62.5674 601.803 63.7938 602.214 65.2043C602.625 66.6148 602.54 68.1238 601.973 69.4791C601.486 70.5585 600.67 71.5886 600.768 72.7689C600.906 74.4242 602.679 75.331 603.923 76.4309C605.057 77.478 605.833 78.8564 606.14 80.3702C606.446 81.8839 606.268 83.4559 605.631 84.8625C604.487 87.2493 602.011 89.0587 601.76 91.6936C601.651 92.8389 601.995 93.9824 601.975 95.1328C601.902 96.1962 601.591 97.2296 601.064 98.1558C600.537 99.0821 599.808 99.8775 598.931 100.483C597.167 101.679 595.18 102.506 593.088 102.916C592.106 103.151 590.935 103.519 590.697 104.501C590.415 105.665 591.713 106.725 591.579 107.915C591.495 108.432 591.209 108.895 590.785 109.202C589.027 110.577 586.247 109.398 585.172 107.442C584.098 105.486 584.235 103.115 584.402 100.889L585.008 92.7947C585.196 90.2761 585.178 87.2853 583.126 85.8145C580.858 84.1884 577.555 85.5048 574.99 84.406C572.317 83.2611 571.358 79.9103 571.466 77.003C571.574 74.0957 572.406 71.1838 571.928 68.3138C571.334 64.7572 568.173 62.3668 564.981 64.6716C567.786 64.2891 568.271 67.5109 566.054 68.8152Z" fill="#212126"/>
<path opacity="0.1" d="M590.965 137.372C590.965 137.372 572.947 144.584 572.947 159.909C572.947 175.234 573.848 195.517 570.695 202.278C567.542 209.04 564.84 211.293 566.641 216.702C568.443 222.111 571.596 221.21 566.641 225.266C561.687 229.323 562.137 222.562 561.687 229.323C561.236 236.084 566.191 236.985 561.687 240.141C557.182 243.296 545.471 255.917 550.426 259.973C555.381 264.03 568.443 277.101 572.947 272.143C577.452 267.185 579.704 254.564 586.01 255.466C592.316 256.367 593.217 256.818 592.316 252.311C591.415 247.803 587.361 247.803 592.766 246.451C598.171 245.099 600.424 248.254 598.622 243.747C596.82 239.239 595.469 237.436 599.072 232.478C602.676 227.52 604.478 226.168 604.027 221.21C603.577 216.251 613.936 171.628 613.936 171.628C613.936 171.628 617.09 133.766 590.965 137.372Z" fill="black"/>
<path opacity="0.1" d="M586.01 136.47C586.01 136.47 567.993 143.682 567.993 159.007C567.993 174.332 568.893 194.616 565.74 201.377C562.587 208.138 559.885 210.392 561.687 215.801C563.488 221.21 566.641 220.308 561.687 224.365C556.732 228.421 557.182 221.66 556.732 228.421C556.281 235.183 561.236 236.084 556.732 239.239C552.228 242.394 540.516 255.015 545.471 259.072C550.426 263.128 563.488 276.2 567.993 271.242C572.497 266.284 574.749 253.663 581.055 254.564C587.361 255.466 588.262 255.917 587.361 251.409C586.46 246.902 582.406 246.902 587.812 245.55C593.217 244.197 595.469 247.353 593.667 242.845C591.865 238.338 590.514 236.535 594.118 231.577C597.721 226.618 599.523 225.266 599.072 220.308C598.622 215.35 608.982 170.727 608.982 170.727C608.982 170.727 612.135 132.864 586.01 136.47Z" fill="black"/>
<path d="M588.262 135.118C588.262 135.118 570.245 142.33 570.245 157.655C570.245 172.98 571.146 193.264 567.993 200.025C564.84 206.786 562.137 209.04 563.939 214.448C565.741 219.857 568.894 218.956 563.939 223.013C558.984 227.069 559.435 220.308 558.984 227.069C558.534 233.83 563.489 234.732 558.984 237.887C554.48 241.042 542.769 253.663 547.724 257.72C552.678 261.776 565.741 274.848 570.245 269.89C574.749 264.931 577.002 252.311 583.308 253.212C589.614 254.114 590.515 254.564 589.614 250.057C588.713 245.55 584.659 245.55 590.064 244.197C595.469 242.845 597.721 246 595.92 241.493C594.118 236.985 592.767 235.183 596.37 230.224C599.974 225.266 601.775 223.914 601.325 218.956C600.874 213.998 611.234 169.374 611.234 169.374C611.234 169.374 614.387 131.512 588.262 135.118Z" fill="#07A0E8"/>
<path d="M682.427 446.528C682.427 485.964 707.15 517.875 737.702 517.875L682.427 446.528Z" fill="#2F2E41"/>
<path d="M737.703 517.875C737.703 477.996 765.292 445.726 799.387 445.726L737.703 517.875Z" fill="#045EFF"/>
<path d="M702.454 450.103C702.454 487.563 718.219 517.875 737.702 517.875L702.454 450.103Z" fill="#045EFF"/>
<path d="M737.703 517.875C737.703 466.918 769.592 425.685 809 425.685L737.703 517.875Z" fill="#2F2E41"/>
<path d="M726.074 518.378C726.074 518.378 733.913 518.136 736.275 516.453C738.638 514.769 748.334 512.759 748.92 515.459C749.506 518.159 760.7 528.887 751.85 528.959C743 529.03 731.286 527.579 728.928 526.142C726.57 524.704 726.074 518.378 726.074 518.378Z" fill="#A4A4A4"/>
<path opacity="0.2" d="M752.008 528.019C743.158 528.09 731.444 526.639 729.086 525.202C727.291 524.107 726.575 520.18 726.336 518.368C726.17 518.375 726.074 518.378 726.074 518.378C726.074 518.378 726.57 524.704 728.928 526.142C731.286 527.579 743 529.03 751.85 528.959C754.405 528.938 755.287 528.028 755.239 526.681C754.884 527.495 753.91 528.003 752.008 528.019Z" fill="black"/>
</svg>
