<svg width="1063" height="793" viewBox="0 0 1063 793" fill="none" xmlns="http://www.w3.org/2000/svg">
<path d="M559.887 790.828C593.723 790.828 621.153 763.409 621.153 729.586C621.153 695.762 593.723 668.343 559.887 668.343C526.05 668.343 498.62 695.762 498.62 729.586C498.62 763.409 526.05 790.828 559.887 790.828Z" fill="#045EFF"/>
<path d="M925.897 787.388C960.172 777.098 996.611 766.368 1023.79 741.907C1048.08 720.049 1064.48 686.67 1054.42 653.889C1044.38 621.175 1014.3 599.361 983.242 588.512C965.628 582.359 947.201 578.945 928.78 576.263C908.755 573.348 888.642 570.959 868.539 568.661C787.137 559.354 705.429 553.669 623.415 551.605C582.946 550.586 542.485 550.61 502.011 551.198C465.865 551.722 427.796 551.709 394.263 536.352C368.187 524.41 344.52 502.684 337.254 474.133C328.867 441.176 344.337 407.613 366.529 383.744C378.226 371.163 391.898 360.574 406.001 350.837C421.301 340.273 437.134 330.458 453.31 321.296C485.17 303.26 518.479 287.91 552.89 275.406C569.866 269.236 587.094 263.913 604.471 259.002C619.144 254.855 633.863 250.702 648.044 245.052C675.459 234.13 701.534 215.63 708.505 185.299C715.111 156.553 703.972 125.347 684.444 103.992C661.852 79.2861 627.787 68.4557 595.128 66.7034C558.464 64.7361 522.644 73.9087 488.183 85.5499C451.427 97.9662 415.464 112.243 377.932 122.3C340.714 132.263 302.776 139.312 264.462 143.384C245.706 145.38 226.383 147.635 207.516 146.106C191.703 144.825 175.971 140.177 164.318 128.959C154.325 119.34 148.372 106.121 150.419 92.1701C150.791 89.6363 154.641 90.7135 154.272 93.2319C151.781 110.214 163.329 125.862 177.559 133.877C194.005 143.141 214.018 143.154 232.328 142.095C272.03 139.698 311.463 133.999 350.218 125.059C388.3 116.364 425.022 103.935 461.702 90.6579C496.538 78.0478 532.154 65.7404 569.371 63.0091C601.664 60.6392 635.634 65.3419 663.767 82.2115C688.492 97.0375 706.673 121.763 712.466 150.135C718.127 177.86 710.287 205.766 689.292 225.113C667.553 245.146 637.747 253.71 609.97 261.598C574.738 271.602 540.263 283.296 506.892 298.481C473.067 313.828 440.627 332.059 409.931 352.971C380.302 373.21 351.061 398.677 341.69 434.784C337.325 451.604 338.131 469.442 345.435 485.329C351.929 499.455 362.625 511.337 375.085 520.501C404.814 542.368 442.282 546.858 478.191 547.305C518.522 547.806 558.855 546.446 599.199 547.108C681.419 548.456 763.471 553.459 845.355 562.116C865.873 564.286 886.365 566.686 906.831 569.314C925.24 571.679 943.711 574.028 961.809 578.227C993.99 585.694 1025.31 600.051 1045.31 627.325C1054.18 639.148 1059.68 653.157 1061.22 667.86C1062.62 683.202 1058.86 698.573 1051.92 712.222C1036.56 742.431 1007.79 761.646 977.24 774.27C960.875 781.031 943.9 786.153 926.959 791.239C924.491 791.98 923.436 788.126 925.897 787.388L925.897 787.388Z" fill="#F2F2F2"/>
<path d="M152.999 124.482C170.653 124.482 184.964 110.177 184.964 92.5296C184.964 74.8826 170.653 60.5769 152.999 60.5769C135.345 60.5769 121.034 74.8826 121.034 92.5296C121.034 110.177 135.345 124.482 152.999 124.482Z" fill="#F2F2F2"/>
<path d="M374.756 185.059C392.41 185.059 406.721 170.753 406.721 153.107C406.721 135.46 392.41 121.154 374.756 121.154C357.102 121.154 342.791 135.46 342.791 153.107C342.791 170.753 357.102 185.059 374.756 185.059Z" fill="#F2F2F2"/>
<path d="M562.551 63.9053C580.205 63.9053 594.516 49.5996 594.516 31.9527C594.516 14.3057 580.205 0 562.551 0C544.897 0 530.586 14.3057 530.586 31.9527C530.586 49.5996 544.897 63.9053 562.551 63.9053Z" fill="#F2F2F2"/>
<path d="M679.756 199.704C697.41 199.704 711.721 185.398 711.721 167.751C711.721 150.105 697.41 135.799 679.756 135.799C662.102 135.799 647.791 150.105 647.791 167.751C647.791 185.398 662.102 199.704 679.756 199.704Z" fill="#F2F2F2"/>
<path d="M521.262 356.805C538.916 356.805 553.227 342.499 553.227 324.852C553.227 307.205 538.916 292.899 521.262 292.899C503.608 292.899 489.297 307.205 489.297 324.852C489.297 342.499 503.608 356.805 521.262 356.805Z" fill="#F2F2F2"/>
<path d="M320.149 432.692C337.802 432.692 352.114 418.387 352.114 400.74C352.114 383.093 337.802 368.787 320.149 368.787C302.495 368.787 288.184 383.093 288.184 400.74C288.184 418.387 302.495 432.692 320.149 432.692Z" fill="#F2F2F2"/>
<path d="M533.249 551.183C550.903 551.183 565.214 536.878 565.214 519.231C565.214 501.584 550.903 487.278 533.249 487.278C515.595 487.278 501.284 501.584 501.284 519.231C501.284 536.878 515.595 551.183 533.249 551.183Z" fill="#F2F2F2"/>
<path d="M762.332 617.751C779.986 617.751 794.297 603.446 794.297 585.799C794.297 568.152 779.986 553.846 762.332 553.846C744.678 553.846 730.367 568.152 730.367 585.799C730.367 603.446 744.678 617.751 762.332 617.751Z" fill="#F2F2F2"/>
<path d="M1030.04 603.106C1047.69 603.106 1062 588.801 1062 571.154C1062 553.507 1047.69 539.201 1030.04 539.201C1012.39 539.201 998.074 553.507 998.074 571.154C998.074 588.801 1012.39 603.106 1030.04 603.106Z" fill="#F2F2F2"/>
<path d="M553.326 90.5371C457.575 91.2132 379.175 168.994 377.815 264.701C377.802 265.585 377.796 271.798 377.797 279.924C377.798 291.839 382.533 303.266 390.961 311.691C399.389 320.117 410.82 324.851 422.74 324.852H422.74C428.648 324.851 434.499 323.686 439.957 321.423C445.415 319.161 450.374 315.846 454.55 311.667C458.726 307.488 462.037 302.528 464.294 297.069C466.551 291.611 467.711 285.762 467.705 279.855C467.701 274.327 467.698 270.501 467.698 270.266C467.695 255.475 471.544 240.937 478.866 228.084C486.188 215.231 496.732 204.504 509.459 196.959C522.187 189.414 536.66 185.311 551.455 185.054C566.249 184.796 580.857 188.393 593.839 195.49C606.822 202.587 617.732 212.941 625.498 225.531C633.263 238.122 637.616 252.517 638.128 267.299C638.641 282.082 635.294 296.743 628.419 309.841C621.543 322.938 611.375 334.021 598.915 341.999L598.931 342.018C598.931 342.018 534.963 383.183 515.461 439.654L515.477 439.658C512.048 451.227 510.31 463.23 510.318 475.296C510.318 480.256 510.61 523.653 511.174 558.876C511.371 571.029 516.34 582.618 525.009 591.141C533.677 599.665 545.351 604.441 557.51 604.438H557.51C563.62 604.438 569.67 603.23 575.311 600.884C580.952 598.537 586.073 595.1 590.38 590.767C594.687 586.435 598.095 581.295 600.406 575.641C602.718 569.988 603.889 563.934 603.852 557.826C603.656 525.568 603.55 488.007 603.55 485.281C603.55 450.606 637.013 416.057 664.501 393.527C696.155 367.583 718.932 332.227 728.081 292.345C730.106 284.134 731.222 275.725 731.41 267.271C731.41 243.954 726.794 220.867 717.829 199.341C708.863 177.815 695.726 158.275 679.172 141.847C662.619 125.419 642.977 112.428 621.378 103.622C599.78 94.8156 576.651 90.3686 553.326 90.5371Z" fill="#045EFF"/>
<path d="M1022.56 793H1.4393C1.05719 792.998 0.691118 792.787 0.421317 792.412C0.151517 792.037 0 791.529 0 791C0 790.471 0.151517 789.963 0.421317 789.588C0.691118 789.213 1.05719 789.002 1.4393 789H1022.56C1022.94 789 1023.31 789.211 1023.58 789.586C1023.85 789.961 1024 790.47 1024 791C1024 791.53 1023.85 792.039 1023.58 792.414C1023.31 792.789 1022.94 793 1022.56 793Z" fill="#3F3D56"/>
<path d="M822.343 363.456C844.41 363.456 862.299 345.574 862.299 323.515C862.299 301.457 844.41 283.574 822.343 283.574C800.276 283.574 782.387 301.457 782.387 323.515C782.387 345.574 800.276 363.456 822.343 363.456Z" fill="#2F2E41"/>
<path d="M748.508 775.024H732.18L724.411 712.066H748.512L748.508 775.024Z" fill="#C56D45"/>
<path d="M720.517 770.36H752.008V790.179H700.689C700.689 787.577 701.202 784.999 702.199 782.595C703.195 780.19 704.656 778.005 706.497 776.165C708.338 774.324 710.524 772.864 712.929 771.868C715.335 770.872 717.913 770.36 720.517 770.36Z" fill="#2F2E41"/>
<path d="M875.035 775.024H858.707L850.938 712.066H875.039L875.035 775.024Z" fill="#C56D45"/>
<path d="M847.044 770.36H878.535V790.179H827.217C827.217 787.577 827.73 784.999 828.726 782.595C829.722 780.19 831.183 778.005 833.024 776.165C834.865 774.324 837.051 772.864 839.457 771.868C841.862 770.872 844.44 770.36 847.044 770.36Z" fill="#2F2E41"/>
<path d="M816.271 363.689C834.337 363.689 848.983 349.049 848.983 330.99C848.983 312.93 834.337 298.29 816.271 298.29C798.204 298.29 783.559 312.93 783.559 330.99C783.559 349.049 798.204 363.689 816.271 363.689Z" fill="#C56D45"/>
<path d="M835.769 469.179L850.406 435.563C853.961 427.676 854.98 418.882 853.322 410.392C851.664 401.903 847.411 394.137 841.15 388.166C839.864 386.895 838.498 385.708 837.06 384.611C829.838 378.964 820.938 375.885 811.768 375.864C805.603 375.888 799.516 377.242 793.921 379.832C793.441 380.045 792.976 380.271 792.496 380.497C791.577 380.937 790.672 381.416 789.792 381.909C784.059 385.2 779.179 389.792 775.547 395.314C771.914 400.837 769.631 407.135 768.882 413.702L762.422 467.808C760.797 472.055 702.834 625.428 723.105 742.521C723.321 743.772 723.931 744.92 724.846 745.799C725.762 746.678 726.934 747.242 728.193 747.407L748.744 750.203C750.245 750.408 751.767 750.038 753.005 749.165C754.243 748.293 755.105 746.985 755.416 745.503L789.899 581.2C790.114 580.179 790.665 579.26 791.464 578.589C792.263 577.918 793.264 577.534 794.307 577.499C795.35 577.464 796.375 577.779 797.218 578.394C798.06 579.01 798.672 579.89 798.956 580.894L847.676 753.678C848.023 754.933 848.772 756.04 849.809 756.829C850.846 757.618 852.113 758.045 853.416 758.045C853.805 758.042 854.193 758.007 854.575 757.938L879.68 753.105C881.14 752.833 882.445 752.025 883.34 750.84C884.234 749.655 884.654 748.179 884.516 746.702C880.826 705.576 861.221 499.574 835.769 469.179Z" fill="#2F2E41"/>
<path d="M689.141 358.202C688.914 360.146 689.116 362.117 689.733 363.974C690.35 365.832 691.367 367.531 692.713 368.953C694.058 370.375 695.699 371.485 697.52 372.205C699.34 372.924 701.297 373.236 703.251 373.118L721.537 417.043L735.368 396.548L715.884 357.978C715.468 354.709 713.867 351.706 711.384 349.539C708.901 347.371 705.709 346.189 702.413 346.217C699.116 346.244 695.945 347.48 693.499 349.689C691.053 351.898 689.502 354.927 689.141 358.202L689.141 358.202Z" fill="#C56D45"/>
<path d="M814.455 513.408C816.399 513.176 818.269 512.52 819.932 511.487C821.595 510.455 823.012 509.07 824.082 507.431C825.152 505.792 825.849 503.938 826.125 502C826.401 500.063 826.248 498.088 825.678 496.216L864.15 468.206L840.988 459.536L808.005 487.464C804.922 488.63 802.374 490.886 800.844 493.804C799.313 496.723 798.907 500.101 799.702 503.299C800.497 506.497 802.438 509.293 805.157 511.156C807.876 513.019 811.184 513.82 814.455 513.408Z" fill="#C56D45"/>
<path d="M751.742 446.327C750.267 446.325 748.795 446.18 747.349 445.894C743.849 445.228 740.568 443.712 737.793 441.479C735.018 439.247 732.835 436.366 731.436 433.091L705.818 401.867C705.277 401.206 704.882 400.438 704.662 399.613C704.442 398.789 704.4 397.926 704.54 397.084C704.68 396.242 704.999 395.439 705.475 394.73C705.95 394.021 706.572 393.422 707.298 392.972L725.524 381.695C726.197 381.278 726.946 380.999 727.727 380.873C728.508 380.748 729.307 380.778 730.077 380.962C730.846 381.147 731.572 381.482 732.211 381.948C732.85 382.414 733.391 383.003 733.802 383.679L751.857 413.413L786.435 387.869C789.188 386.426 792.368 386.022 795.395 386.729C798.422 387.437 801.094 389.209 802.921 391.723C804.749 394.236 805.611 397.323 805.349 400.42C805.088 403.516 803.721 406.415 801.498 408.587L766.987 440.056C762.931 444.075 757.452 446.328 751.742 446.327Z" fill="#2F2E41"/>
<path d="M845.172 493.287C845.125 493.287 845.078 493.287 845.031 493.286C844.191 493.265 843.364 493.069 842.604 492.709C841.845 492.348 841.169 491.833 840.622 491.195L824.418 472.299C823.866 471.655 823.457 470.902 823.218 470.089C822.979 469.275 822.915 468.421 823.031 467.581C823.147 466.741 823.44 465.936 823.89 465.218C824.34 464.499 824.938 463.885 825.644 463.415L855.986 443.195L828.498 410.16C826.899 407.496 826.312 404.345 826.845 401.283C827.378 398.222 828.996 395.455 831.401 393.487C833.807 391.519 836.841 390.482 839.948 390.565C843.055 390.649 846.029 391.847 848.326 393.941L881.734 426.576C884.363 428.977 886.371 431.98 887.583 435.327C888.796 438.674 889.178 442.266 888.697 445.793C888.215 449.32 886.885 452.678 884.82 455.578C882.754 458.478 880.016 460.834 876.839 462.443L849.534 491.406C848.973 492 848.297 492.473 847.547 492.796C846.797 493.12 845.989 493.287 845.172 493.287Z" fill="#2F2E41"/>
<path d="M807.953 423.658C807.693 423.658 807.433 423.642 807.175 423.609C806.046 423.472 804.981 423.014 804.105 422.29C803.229 421.565 802.579 420.605 802.233 419.523L790.056 382.206C789.751 381.262 789.798 380.24 790.189 379.329C790.579 378.417 791.286 377.678 792.179 377.247L792.575 377.061C792.933 376.89 793.288 376.722 793.65 376.561C799.328 373.928 805.508 372.555 811.767 372.536C819.893 372.551 827.837 374.937 834.624 379.401C835.534 380.007 836.17 380.945 836.395 382.015C836.619 383.084 836.414 384.199 835.825 385.119L812.983 420.889C812.447 421.739 811.705 422.438 810.825 422.923C809.945 423.407 808.957 423.66 807.953 423.658Z" fill="#E6E6E6"/>
<path d="M853.844 305.684C861.065 305.684 866.919 299.833 866.919 292.615C866.919 285.397 861.065 279.545 853.844 279.545C846.623 279.545 840.77 285.397 840.77 292.615C840.77 299.833 846.623 305.684 853.844 305.684Z" fill="#2F2E41"/>
<path d="M809.024 278.249C799.84 278.249 791.032 281.896 784.538 288.388C778.044 294.879 774.396 303.684 774.396 312.864V327.509H792.415L801.033 312.864L803.619 327.509H858.304L843.653 312.864C843.653 303.684 840.005 294.879 833.511 288.388C827.016 281.896 818.208 278.249 809.024 278.249Z" fill="#2F2E41"/>
<path d="M860.563 283.662C862.009 279.143 865.003 275.278 869.017 272.747C873.032 270.215 877.811 269.18 882.514 269.822C890.846 271.215 897.434 277.91 901.359 285.387C905.284 292.865 907.097 301.234 909.736 309.256C912.375 317.278 916.117 325.343 922.779 330.536C929.441 335.729 939.664 337.138 946.206 331.796C945.459 337.363 942.979 342.554 939.119 346.636C935.258 350.717 930.211 353.482 924.692 354.539C919.173 355.596 913.462 354.892 908.365 352.526C903.268 350.161 899.045 346.253 896.291 341.357C892.839 335.217 891.948 328.021 890.924 321.052C889.9 314.083 888.57 306.873 884.448 301.161C880.327 295.449 872.611 291.718 866.063 294.32L860.563 283.662Z" fill="#2F2E41"/>
<path d="M435.43 303.601C423.51 303.6 412.079 298.866 403.651 290.441C395.223 282.015 390.488 270.588 390.487 258.673C390.486 250.547 390.492 244.334 390.504 243.45C390.883 215.616 397.896 188.273 410.961 163.69C389.495 193.064 377.693 228.38 377.186 264.752C377.173 265.636 377.167 271.849 377.168 279.975C377.169 291.89 381.904 303.317 390.332 311.742C398.76 320.168 410.191 324.902 422.111 324.903C431.906 324.899 441.432 321.7 449.241 315.791C457.051 309.882 462.718 301.586 465.381 292.164C457.151 299.541 446.483 303.615 435.43 303.601Z" fill="#1F1F1F"/>
<path d="M556.372 185.205C570.151 185.863 583.566 189.854 595.463 196.835C607.36 203.817 617.384 213.581 624.674 225.288C631.965 236.995 636.304 250.296 637.319 264.049C638.334 277.802 635.995 291.595 630.503 304.246C638.447 294.919 644.287 283.99 647.623 272.203C650.958 260.416 651.713 248.048 649.834 235.943C647.954 223.839 643.486 212.281 636.734 202.059C629.981 191.837 621.103 183.19 610.705 176.709C600.306 170.227 588.632 166.064 576.478 164.501C564.324 162.938 551.975 164.014 540.274 167.654C528.574 171.295 517.796 177.414 508.675 185.596C499.555 193.777 492.307 203.829 487.425 215.064C495.863 205.142 506.467 197.29 518.421 192.113C530.375 186.935 543.359 184.572 556.372 185.205Z" fill="#1F1F1F"/>
<path d="M570.2 583.187C558.041 583.19 546.367 578.414 537.699 569.89C529.03 561.367 524.061 549.778 523.864 537.625C523.3 502.402 523.008 459.005 523.008 454.045C523 441.979 524.738 429.976 528.167 418.407L528.151 418.403C530.176 412.597 532.622 406.945 535.469 401.494C526.729 413.136 519.774 426.014 514.832 439.705L514.849 439.709C511.419 451.278 509.682 463.281 509.689 475.347C509.689 480.307 509.981 523.704 510.545 558.927C510.743 571.08 515.712 582.668 524.38 591.192C533.049 599.716 544.722 604.492 556.881 604.489C566.907 604.487 576.662 601.236 584.683 595.223C592.704 589.211 598.559 580.761 601.369 571.14C592.849 578.906 581.73 583.203 570.2 583.187Z" fill="#1F1F1F"/>
<path d="M153.863 775.631L170.191 775.63L177.96 712.672L153.859 712.674L153.863 775.631Z" fill="#C56D45"/>
<path d="M201.683 790.785L150.364 790.787L150.364 770.968L181.854 770.966C187.113 770.966 192.156 773.054 195.875 776.771C199.593 780.487 201.682 785.528 201.683 790.785L201.683 790.785Z" fill="#2F2E41"/>
<path d="M95.2608 775.631L111.588 775.63L119.357 712.672L95.2568 712.674L95.2608 775.631Z" fill="#C56D45"/>
<path d="M143.079 790.785L91.7609 790.787L91.76 770.968L123.251 770.966C128.509 770.966 133.553 773.054 137.271 776.771C140.99 780.487 143.079 785.528 143.079 790.785L143.079 790.785Z" fill="#2F2E41"/>
<path d="M109.529 756.268L93.5799 755.43C92.7575 755.386 91.9518 755.18 91.2096 754.824C90.4674 754.467 89.8033 753.967 89.256 753.352C88.7086 752.737 88.2888 752.019 88.0208 751.241C87.7529 750.462 87.6421 749.638 87.695 748.817L106.758 537.841L194.543 561.52L203.001 559.214L176.552 745.984C176.327 747.389 175.629 748.675 174.573 749.63C173.518 750.584 172.168 751.151 170.747 751.235L153.554 752.036C152.695 752.084 151.834 751.953 151.028 751.651C150.222 751.35 149.486 750.884 148.869 750.284C148.252 749.684 147.766 748.962 147.442 748.165C147.118 747.368 146.963 746.512 146.986 745.652L150.101 633.556C150.116 633.037 149.936 632.532 149.597 632.14C149.257 631.748 148.783 631.497 148.268 631.437C147.753 631.377 147.233 631.512 146.813 631.815C146.392 632.119 146.1 632.569 145.995 633.076L115.952 751.318C115.668 752.721 114.907 753.982 113.797 754.886C112.687 755.791 111.298 756.282 109.866 756.278C109.755 756.278 109.642 756.275 109.529 756.268Z" fill="#2F2E41"/>
<path d="M156.794 365.219C174.861 365.219 189.507 350.579 189.507 332.519C189.507 314.46 174.861 299.819 156.794 299.819C138.728 299.819 124.082 314.46 124.082 332.519C124.082 350.579 138.728 365.219 156.794 365.219Z" fill="#C56D45"/>
<path d="M102.33 428.589L105.927 506.164L107.227 534.387C107.279 535.615 107.696 536.801 108.425 537.791C109.155 538.781 110.163 539.531 111.321 539.946L195.677 570.492C196.359 570.745 197.081 570.871 197.808 570.865C198.639 570.869 199.462 570.705 200.228 570.384C200.994 570.063 201.688 569.591 202.268 568.996C202.848 568.401 203.302 567.696 203.602 566.921C203.903 566.147 204.045 565.32 204.019 564.49L200.561 425.007C200.334 413.563 196.119 402.557 188.645 393.887C181.17 385.216 170.903 379.423 159.614 377.508C158.798 377.384 157.968 377.259 157.138 377.149C150.138 376.28 143.032 376.955 136.321 379.127C129.61 381.298 123.456 384.914 118.294 389.718C112.947 394.633 108.747 400.662 105.988 407.379C103.23 414.096 101.981 421.336 102.33 428.589L102.33 428.589Z" fill="#07A0E8"/>
<path d="M235.974 555.012C233.979 554.393 232.156 553.317 230.651 551.869C229.146 550.42 228.001 548.641 227.306 546.671C226.611 544.702 226.387 542.597 226.65 540.526C226.914 538.454 227.658 536.473 228.824 534.74L200.218 496.717L224.903 495.189L248.283 531.531C250.786 533.466 252.528 536.22 253.203 539.309C253.878 542.399 253.443 545.628 251.975 548.429C250.506 551.23 248.098 553.425 245.172 554.629C242.246 555.833 238.99 555.969 235.974 555.012H235.974Z" fill="#C56D45"/>
<path d="M215.861 527.859C215.103 527.552 214.414 527.097 213.833 526.522C213.252 525.946 212.791 525.261 212.477 524.506L169.38 421.866C168.534 419.856 168.093 417.7 168.081 415.52C168.07 413.34 168.488 411.179 169.313 409.16C170.137 407.142 171.351 405.306 172.886 403.756C174.42 402.207 176.245 400.976 178.257 400.132C180.268 399.288 182.425 398.849 184.606 398.839C186.787 398.829 188.949 399.249 190.967 400.075C192.986 400.901 194.822 402.116 196.37 403.651C197.919 405.186 199.149 407.012 199.992 409.022L243.089 511.664C243.726 513.186 243.733 514.898 243.109 516.425C242.485 517.952 241.28 519.169 239.759 519.81L220.626 527.836C219.873 528.155 219.064 528.321 218.246 528.325C217.428 528.329 216.617 528.171 215.861 527.859L215.861 527.859Z" fill="#07A0E8"/>
<path d="M146.278 524.239L187.671 445.011C188.47 443.487 189.84 442.342 191.482 441.827C193.123 441.312 194.902 441.469 196.428 442.264L256.512 473.631C258.036 474.429 259.181 475.799 259.696 477.44C260.212 479.081 260.055 480.859 259.26 482.385L217.866 561.612C217.068 563.136 215.697 564.281 214.056 564.796C212.414 565.311 210.635 565.154 209.109 564.359L149.026 532.992C147.502 532.195 146.356 530.825 145.841 529.184C145.326 527.543 145.483 525.764 146.278 524.239Z" fill="#3F3D56"/>
<path d="M174.037 488.042C173.301 486.087 172.118 484.332 170.583 482.916C169.048 481.499 167.203 480.461 165.195 479.885C163.188 479.308 161.073 479.208 159.02 479.593C156.967 479.978 155.032 480.838 153.37 482.104L113.709 455.804L113.642 480.527L151.315 501.711C153.395 504.095 156.247 505.67 159.373 506.161C162.498 506.652 165.697 506.027 168.408 504.397C171.118 502.766 173.168 500.233 174.198 497.243C175.227 494.252 175.17 490.995 174.037 488.042Z" fill="#C56D45"/>
<path d="M123.892 493.602L91.478 467.936C87.9714 466.759 84.803 464.749 82.2446 462.079C79.6863 459.408 77.8144 456.157 76.7897 452.604C75.765 449.051 75.6181 445.303 76.3615 441.681C77.105 438.059 78.7166 434.672 81.0581 431.809L110.489 393.254C112.534 390.755 115.41 389.076 118.592 388.523C121.774 387.97 125.048 388.581 127.817 390.242C130.585 391.904 132.663 394.506 133.671 397.573C134.678 400.64 134.548 403.967 133.303 406.946L110.017 445.023L144.238 461.248C145.034 461.625 145.741 462.167 146.311 462.837C146.882 463.508 147.304 464.292 147.549 465.137C147.795 465.983 147.858 466.871 147.734 467.743C147.611 468.614 147.303 469.45 146.833 470.194L133.019 492.047C132.552 492.785 131.935 493.416 131.209 493.9C130.482 494.384 129.662 494.71 128.801 494.858C128.767 494.864 128.733 494.869 128.698 494.874C127.853 495.002 126.99 494.955 126.163 494.736C125.336 494.517 124.563 494.131 123.892 493.602Z" fill="#07A0E8"/>
<path d="M132.076 354.415C131.935 354.005 131.891 353.568 131.946 353.137C132 352.707 132.153 352.295 132.392 351.933C132.63 351.57 132.949 351.268 133.323 351.047C133.696 350.827 134.116 350.695 134.548 350.662C135.434 350.71 136.301 350.937 137.097 351.33C137.893 351.722 138.601 352.272 139.178 352.945C140.362 354.31 141.74 355.493 143.268 356.456C144.851 357.254 146.997 357.14 147.899 355.62C148.746 354.192 148.166 352.281 147.653 350.623C146.348 346.404 145.618 342.029 145.482 337.615C145.334 332.689 146.03 327.547 148.758 323.705C152.28 318.746 158.576 316.863 164.535 317C170.494 317.136 176.356 318.975 182.258 320.138C184.296 320.539 186.691 320.744 188.054 319.165C189.503 317.487 188.971 314.77 188.355 312.503C186.755 306.622 185.058 300.542 181.342 295.792C177.324 290.856 171.584 287.626 165.278 286.752C159.225 286.002 153.08 286.7 147.348 288.787C138.01 291.729 129.793 297.451 123.797 305.187C117.615 313.415 114.944 323.754 116.367 333.945C117.758 342.82 122.463 350.839 129.534 356.384L132.076 354.415Z" fill="#1F1F1F"/>
<path d="M546.389 775.891C537.686 772.101 529.983 766.342 523.888 759.067C517.792 751.793 513.472 743.201 511.267 733.972C509.062 724.742 509.034 715.126 511.183 705.884C513.333 696.641 517.602 688.024 523.654 680.713C516.637 685.834 510.791 692.388 506.502 699.941C502.213 707.493 499.58 715.871 498.778 724.518C497.976 733.165 499.023 741.884 501.85 750.096C504.676 758.308 509.218 765.825 515.173 772.148C521.128 778.471 528.36 783.456 536.389 786.772C544.419 790.087 553.062 791.658 561.745 791.379C570.429 791.1 578.953 788.979 586.753 785.155C594.554 781.331 601.451 775.893 606.988 769.201C598.352 775.51 588.213 779.448 577.581 780.622C566.949 781.795 556.195 780.164 546.389 775.891Z" fill="#1F1F1F"/>
</svg>
