<svg width="812" height="602" viewBox="0 0 812 602" fill="none" xmlns="http://www.w3.org/2000/svg">
<path d="M543.227 601.73C657.091 601.73 749.395 588.831 749.395 572.919C749.395 557.007 657.091 544.108 543.227 544.108C429.364 544.108 337.06 557.007 337.06 572.919C337.06 588.831 429.364 601.73 543.227 601.73Z" fill="#30374E"/>
<path d="M53.6289 448.625C53.6289 448.625 63.7086 446.335 70.3138 453.108C70.3138 453.108 66.0682 456.926 56.0801 452.695L53.6289 448.625Z" fill="#045EFF"/>
<path d="M52.5143 448.526C52.5143 448.526 46.5429 456.987 50.3304 465.669C50.3304 465.669 55.4924 463.188 55.3473 452.344L52.5143 448.526Z" fill="#045EFF"/>
<path d="M45.793 435.774C45.793 435.774 49.3743 428.023 66.4105 437.393C66.4105 437.393 64.5778 442.57 57.3388 442.647C50.0998 442.723 47.9311 439.585 45.793 435.774Z" fill="#045EFF"/>
<path d="M44.7087 435.3C44.7087 435.3 36.1792 434.903 36.6602 454.33C36.6602 454.33 42.1048 455.093 45.5029 448.694C48.9009 442.295 47.0988 438.989 44.7087 435.3Z" fill="#045EFF"/>
<path d="M38.7676 420.181C38.7676 420.181 42.5856 406.68 60.5076 414.927C60.5076 414.927 57.3768 427.29 40.8064 424.579L38.7676 420.181Z" fill="#045EFF"/>
<path d="M32.1172 400.831C32.1172 400.831 40.1962 386.903 56.927 398.204C56.927 398.204 52.2002 411.087 33.7971 405.497L32.1172 400.831Z" fill="#045EFF"/>
<path d="M28.9551 382.199C28.9551 382.199 38.5995 369.256 55.1928 380.435C55.1928 380.435 45.9836 391.843 29.1613 385.322L28.9551 382.199Z" fill="#045EFF"/>
<path d="M26.1006 364.086C26.1006 364.086 35.8443 350.601 51.7503 361.681C51.7503 361.681 40.5405 373.769 26.2991 367.08L26.1006 364.086Z" fill="#045EFF"/>
<path d="M25.9619 347.852C25.9619 347.852 36.0034 330.648 50.8939 340.85C50.8939 340.85 39.8826 355.793 26.1757 350.975L25.9619 347.852Z" fill="#045EFF"/>
<path d="M27.3145 328.777C27.3145 328.777 38.005 311.672 52.5824 323.294C52.5824 323.294 39.5246 338.375 27.4824 331.808L27.3145 328.777Z" fill="#045EFF"/>
<path d="M30.0878 311.626C30.0878 311.626 43.0692 295.353 55.707 300.653C55.707 300.653 42.2063 317.91 29.7441 315.742L30.0878 311.626Z" fill="#045EFF"/>
<path d="M33.9044 295.285C33.9044 295.285 48.8254 275.431 58.6226 281.066C58.6226 281.066 47.6953 296.407 32.9805 298.896L33.9044 295.285Z" fill="#045EFF"/>
<path d="M39.7237 276.24C39.7237 276.24 52.8349 259.96 63.3957 263.075C63.3957 263.075 52.3615 279.791 38.1201 281.158L39.7237 276.24Z" fill="#045EFF"/>
<path d="M44.9531 258.44C44.9531 258.44 59.5992 242.71 66.571 244.833C66.571 244.833 56.3768 261.907 44.4873 261.747L44.9531 258.44Z" fill="#045EFF"/>
<path d="M50.123 241.977C50.123 241.977 62.4096 223.536 69.8395 224.414C69.8395 224.414 62.7303 240.595 50.2452 243.756L50.123 241.977Z" fill="#045EFF"/>
<path d="M55.4612 219.901C55.4612 219.901 66.4496 205.652 72.8792 205.255C72.8792 205.255 64.7009 223.841 55.2627 224.345L55.4612 219.901Z" fill="#045EFF"/>
<path d="M58.516 205.232L68.1222 176.451C68.1222 176.451 70.4131 201.727 57.4316 210.524L58.516 205.232Z" fill="#045EFF"/>
<path d="M61.1055 174.03C61.1055 174.03 61.4414 150.519 60.0898 148.701C60.0898 148.701 69.6121 167.593 61.724 184.37L61.1055 174.03Z" fill="#045EFF"/>
<path d="M38.2789 419.898C38.2789 419.898 25.8626 413.316 19.3643 431.91C19.3643 431.91 30.4366 438.233 39.9818 424.419L38.2789 419.898Z" fill="#045EFF"/>
<path d="M31.6827 400.106C31.6827 400.106 16.6242 394.417 10.7979 413.759C10.7979 413.759 22.6109 420.746 33.3321 404.779L31.6827 400.106Z" fill="#045EFF"/>
<path d="M28.3539 383.367C28.3539 383.367 17.0601 371.829 2.11621 385.147C2.11621 385.147 12.761 395.219 28.5601 386.514L28.3539 383.367Z" fill="#045EFF"/>
<path d="M25.7414 364.117C25.7414 364.117 14.2872 352.044 0 365.155C0 365.155 12.7218 375.64 25.9628 367.103L25.7414 364.117Z" fill="#045EFF"/>
<path d="M25.9923 348.31C25.9923 348.31 17.3177 330.388 1.68652 339.398C1.68652 339.398 11.5066 355.152 25.5418 351.418L25.9923 348.31Z" fill="#045EFF"/>
<path d="M28.209 328.639C28.209 328.639 19.5572 310.389 3.72754 320.186C3.72754 320.186 14.9221 336.688 27.6592 331.587L28.209 328.639Z" fill="#045EFF"/>
<path d="M31.6676 311.611C31.6676 311.611 27.3609 291.26 13.6846 290.329C13.6846 290.329 18.0219 311.809 30.1099 315.436L31.6676 311.611Z" fill="#045EFF"/>
<path d="M34.2564 295.3C34.2564 295.3 31.454 270.627 20.1602 270.513C20.1602 270.513 21.8019 289.275 33.2256 298.881L34.2564 295.3Z" fill="#045EFF"/>
<path d="M40.846 275.453C40.846 275.453 36.104 255.096 25.2148 253.309C25.2148 253.309 27.8875 273.163 40.1282 280.585L40.846 275.453Z" fill="#045EFF"/>
<path d="M46.2362 258.501C46.2362 258.501 44.709 237.067 37.9129 234.356C37.9129 234.356 35.1562 254.042 44.5181 261.372L46.2362 258.501Z" fill="#045EFF"/>
<path d="M50.6124 241.709C50.6124 241.709 48.207 219.679 41.2123 217.029C41.2123 217.029 40.0669 234.661 49.6884 243.221L50.6124 241.709Z" fill="#045EFF"/>
<path d="M56.531 221.596C56.531 221.596 55.2787 203.643 50.1548 199.749C50.1548 199.749 46.6575 219.748 54.2402 225.376L56.531 221.596Z" fill="#045EFF"/>
<path d="M57.8594 204.384L51.1397 174.802C51.1397 174.802 46.3824 199.726 58.4474 209.76L57.8594 204.384Z" fill="#045EFF"/>
<path d="M56.8123 174.603C56.8123 174.603 43.3498 155.299 43.4567 153.054C43.4567 153.054 46.1599 174.038 62.0965 183.514L56.8123 174.603Z" fill="#045EFF"/>
<path d="M57.8582 168.578C57.8582 168.578 44.5255 140.79 39.2031 138.797C39.2031 138.797 56.0713 145.998 58.7592 167.662L57.8582 168.578Z" fill="#045EFF"/>
<path d="M55.2167 224.49L54.4531 224.299C61.9747 192.228 63.0361 172.007 57.4312 167.364L57.9505 166.738C63.8608 171.656 62.9292 191.632 55.2167 224.49Z" fill="#444053"/>
<path d="M33.6221 299.828L32.4385 299.5C33.2708 296.552 34.1719 293.551 35.134 290.596C43.5338 264.847 50.5132 240.961 54.7971 222.68L55.7668 222.107C51.4753 240.434 44.6868 265.198 36.3024 290.97C35.3478 293.918 34.4468 296.896 33.6221 299.828Z" fill="#444053"/>
<path d="M69.5504 471.183C69.3824 471.022 52.583 454.482 39.6779 425.183C32.1165 408.033 27.3201 389.793 25.4671 371.142C23.1762 347.829 26.3071 321.408 33.1032 297.148L34.0806 298.156C18.8084 352.609 29.3539 397.685 41.1288 424.457C53.904 453.474 70.5126 469.854 70.6806 470.014L69.5504 471.183Z" fill="#444053"/>
<path d="M88.0459 383.971C88.0459 383.971 94.1548 382.573 98.1409 386.682C98.1409 386.682 95.5675 388.972 89.5349 386.43L88.0459 383.971Z" fill="#045EFF"/>
<path d="M87.3811 383.917C87.3811 383.917 83.7769 389.033 86.0677 394.279C86.0677 394.279 89.1833 392.752 89.1222 386.223L87.3811 383.917Z" fill="#045EFF"/>
<path d="M83.3174 376.197C83.3174 376.197 85.4784 371.516 95.7643 377.182C95.7643 377.182 94.657 380.305 90.2815 380.351C85.906 380.397 84.6232 378.503 83.3174 376.197Z" fill="#045EFF"/>
<path d="M82.66 375.914C82.66 375.914 77.498 375.677 77.7882 387.414C77.7882 387.414 81.0793 387.872 83.1334 384.008C85.1876 380.145 84.1032 378.144 82.66 375.914Z" fill="#045EFF"/>
<path d="M79.0488 366.774C79.0488 366.774 81.3931 358.611 92.2059 363.582C92.2059 363.582 90.3198 371.058 80.3012 369.416L79.0488 366.774Z" fill="#045EFF"/>
<path d="M75.0479 355.075C75.0479 355.075 79.9273 346.676 90.0452 353.487C90.0452 353.487 87.1817 361.276 76.0635 357.893L75.0479 355.075Z" fill="#045EFF"/>
<path d="M73.1318 343.812C73.1318 343.812 78.9658 335.985 88.9921 342.743C88.9921 342.743 83.433 349.616 73.2616 345.698L73.1318 343.812Z" fill="#045EFF"/>
<path d="M71.4062 332.862C71.4062 332.862 77.3013 324.706 86.9152 331.411C86.9152 331.411 80.142 338.719 71.5284 334.672L71.4062 332.862Z" fill="#045EFF"/>
<path d="M71.3291 323.042C71.3291 323.042 77.438 312.649 86.3952 318.811C86.3952 318.811 79.7365 327.845 71.4513 324.92L71.3291 323.042Z" fill="#045EFF"/>
<path d="M72.123 311.519C72.123 311.519 78.6061 301.172 87.3953 308.174C87.3953 308.174 79.4996 317.292 72.2147 313.321L72.123 311.519Z" fill="#045EFF"/>
<path d="M73.8188 301.149C73.8188 301.149 81.6611 291.314 89.3049 294.521C89.3049 294.521 81.1419 304.952 73.6279 303.638L73.8188 301.149Z" fill="#045EFF"/>
<path d="M76.1238 291.268C76.1238 291.268 85.1421 279.272 91.0677 282.67C91.0677 282.67 84.4625 291.948 75.5664 293.452L76.1238 291.268Z" fill="#045EFF"/>
<path d="M79.6451 279.768C79.6451 279.768 87.5714 269.925 93.9705 271.811C93.9705 271.811 87.3042 281.914 78.6982 282.738L79.6451 279.768Z" fill="#045EFF"/>
<path d="M82.8069 268.993C82.8069 268.993 91.6572 259.486 95.8724 260.769C95.8724 260.769 89.7176 271.086 82.5244 270.994L82.8069 268.993Z" fill="#045EFF"/>
<path d="M85.9297 259.043C85.9297 259.043 93.3596 247.895 97.8497 248.414C97.8497 248.414 93.5582 258.196 86.0061 260.113L85.9297 259.043Z" fill="#045EFF"/>
<path d="M89.1671 245.695C89.1671 245.695 95.8105 237.082 99.6973 236.837C99.6973 236.837 94.7491 248.078 89.0449 248.36L89.1671 245.695Z" fill="#045EFF"/>
<path d="M91.0076 236.822L96.8034 219.443C96.8034 219.443 98.1779 234.715 90.3203 240.06L91.0076 236.822Z" fill="#045EFF"/>
<path d="M92.5726 217.961C92.5726 217.961 92.7712 203.75 91.9541 202.651C91.9541 202.651 97.7117 214.067 92.9392 224.215L92.5726 217.961Z" fill="#045EFF"/>
<path d="M78.7667 366.606C78.7667 366.606 71.268 362.62 67.3125 373.86C67.3125 373.86 74.0094 377.678 79.7823 369.34L78.7667 366.606Z" fill="#045EFF"/>
<path d="M74.7884 354.602C74.7884 354.602 65.6785 351.166 62.1582 362.857C62.1582 362.857 69.298 367.079 75.7811 357.435L74.7884 354.602Z" fill="#045EFF"/>
<path d="M72.7645 344.515C72.7645 344.515 65.9455 337.543 56.9043 345.584C56.9043 345.584 63.3416 351.693 72.8944 346.408L72.7645 344.515Z" fill="#045EFF"/>
<path d="M71.1913 332.877C71.1913 332.877 64.2654 325.585 55.6289 333.511C55.6289 333.511 63.3185 339.841 71.3135 334.687L71.1913 332.877Z" fill="#045EFF"/>
<path d="M71.3451 323.294C71.3451 323.294 66.099 312.458 56.6455 317.903C56.6455 317.903 62.5864 327.425 71.0702 325.172L71.3451 323.294Z" fill="#045EFF"/>
<path d="M72.6801 311.42C72.6801 311.42 67.4494 300.385 57.8584 306.311C57.8584 306.311 64.624 316.291 72.3289 313.183L72.6801 311.42Z" fill="#045EFF"/>
<path d="M74.7723 301.149C74.7723 301.149 72.1684 288.84 63.8984 288.282C63.8984 288.282 66.5176 301.264 73.8254 303.455L74.7723 301.149Z" fill="#045EFF"/>
<path d="M76.3386 291.276C76.3386 291.276 74.6586 276.362 67.7861 276.286C67.7861 276.286 68.7788 287.633 75.6819 293.444L76.3386 291.276Z" fill="#045EFF"/>
<path d="M80.316 279.279C80.316 279.279 77.4525 266.97 70.8701 265.885C70.8701 265.885 72.489 277.882 79.8884 282.372L80.316 279.279Z" fill="#045EFF"/>
<path d="M83.5767 269.031C83.5767 269.031 82.6374 256.05 78.5521 254.431C78.5521 254.431 76.8798 266.336 82.5381 270.765L83.5767 269.031Z" fill="#045EFF"/>
<path d="M86.2276 258.875C86.2276 258.875 84.7768 245.558 80.5463 243.954C80.5463 243.954 79.8514 254.645 85.6702 259.792L86.2276 258.875Z" fill="#045EFF"/>
<path d="M89.8007 246.719C89.8007 246.719 89.0371 235.868 85.9826 233.508C85.9826 233.508 83.8674 245.604 88.4491 249.002L89.8007 246.719Z" fill="#045EFF"/>
<path d="M90.6247 236.311L86.5623 218.427C86.5623 218.427 83.6835 233.501 90.976 239.564L90.6247 236.311Z" fill="#045EFF"/>
<path d="M89.976 218.313C89.976 218.313 81.8436 206.652 81.9046 205.285C81.9046 205.285 83.5311 217.969 93.1679 223.696L89.976 218.313Z" fill="#045EFF"/>
<path d="M90.5881 214.662C90.5881 214.662 82.5244 197.863 79.3096 196.679C79.3096 196.679 89.5114 201.032 91.1303 214.135L90.5881 214.662Z" fill="#045EFF"/>
<path d="M89.0065 248.46L88.5254 248.345C93.1071 228.957 93.718 216.732 90.3275 213.929L90.6406 213.547C94.2372 216.525 93.6721 228.606 89.0065 248.46Z" fill="#444053"/>
<path d="M75.9571 294.017L75.2393 293.811C75.7432 292.031 76.293 290.222 76.8734 288.465C81.9361 272.895 86.1666 258.455 88.7552 247.406L89.3432 247.055C86.7469 258.127 82.6463 273.109 77.5759 288.694C76.9956 290.458 76.4534 292.238 75.9571 294.017Z" fill="#444053"/>
<path d="M97.6733 397.609C97.5741 397.509 87.418 387.514 79.6139 369.798C75.0461 359.43 72.1467 348.404 71.0232 337.13C69.6258 323.034 71.5349 307.059 75.6507 292.39L76.2387 293.001C67.0066 325.921 73.3828 353.174 80.4997 369.363C88.2274 386.926 98.2613 396.799 98.3682 396.898L97.6733 397.609Z" fill="#444053"/>
<path d="M120.643 435.789C118.683 436.137 116.764 436.685 114.916 437.423C73.7263 453.872 74.4136 561.541 74.4136 561.541H62.2874C62.2874 561.541 58.4693 515.335 41.8302 449.412C26.8405 390.102 88.319 336.947 100.804 326.868C102.209 325.745 102.988 325.149 102.988 325.149C164.909 347.905 120.643 435.789 120.643 435.789Z" fill="#AFC0E0"/>
<path opacity="0.2" d="M107.493 327.02C106.065 326.364 104.591 325.738 103.026 325.165C103.026 325.165 102.262 325.76 100.842 326.883C88.357 336.963 26.8786 390.118 41.8683 449.427C58.5074 515.35 62.2873 561.541 62.2873 561.541H69.1063C69.1063 561.541 65.3265 515.335 48.6492 449.412C33.7205 390.377 94.6034 337.421 107.493 327.02Z" fill="white"/>
<path d="M324.94 449.427C308.263 515.35 304.506 561.541 304.506 561.541H292.357C292.357 561.541 293.12 449.015 249.037 436.454C248.082 436.167 247.11 435.94 246.128 435.774C246.128 435.774 201.838 347.89 263.782 325.149C263.782 325.149 264.408 325.615 265.539 326.524C277.016 335.71 340.098 389.43 324.94 449.427Z" fill="#AFC0E0"/>
<path opacity="0.1" d="M120.643 435.789C118.684 436.137 116.765 436.685 114.916 437.424C107.469 400.979 102.752 364.029 100.805 326.883C102.21 325.76 102.989 325.165 102.989 325.165C164.91 347.905 120.643 435.789 120.643 435.789Z" fill="black"/>
<path opacity="0.1" d="M265.562 326.539C263.037 363.578 257.519 400.351 249.06 436.499C248.106 436.213 247.134 435.986 246.151 435.82C246.151 435.82 201.861 347.936 263.806 325.195C263.783 325.165 264.409 325.631 265.562 326.539Z" fill="black"/>
<path d="M242.889 452.451C238.613 469.322 233.601 486.631 227.854 504.377C227.854 504.377 200.577 532.791 134.693 504.377C134.693 504.377 128.11 485.821 120.871 454.276C104.935 384.917 85.8216 252.744 126.545 116.981C138.672 76.1679 155.908 37.0512 177.845 0.560547C177.845 0.560547 212.635 40.5051 238.17 116.958C263.705 193.411 279.955 306.387 242.889 452.451Z" fill="#E3E8F4"/>
<path d="M183.382 279.455C213.591 279.455 238.08 254.966 238.08 224.757C238.08 194.549 213.591 170.06 183.382 170.06C153.174 170.06 128.685 194.549 128.685 224.757C128.685 254.966 153.174 279.455 183.382 279.455Z" fill="#AFC0E0"/>
<path d="M222.173 224.788C222.173 232.134 220.087 239.328 216.158 245.535C212.229 251.742 206.618 256.705 199.979 259.848C193.339 262.991 185.944 264.185 178.653 263.289C171.362 262.394 164.475 259.446 158.793 254.79C156.02 252.506 153.574 249.852 151.524 246.902C150.603 245.584 149.766 244.209 149.019 242.786C146.11 237.233 144.593 231.057 144.598 224.788C144.598 224.475 144.598 224.169 144.598 223.864C144.797 215.568 147.647 207.555 152.732 200.997C157.816 194.44 164.867 189.683 172.851 187.424C175.9 186.584 179.037 186.107 182.198 186.004H183.359C188.454 186.001 193.5 187.002 198.209 188.949C202.917 190.897 207.196 193.753 210.801 197.355C214.405 200.957 217.265 205.233 219.216 209.94C221.167 214.647 222.172 219.692 222.173 224.788Z" fill="#045EFF"/>
<path d="M238.163 116.958C176.104 146.67 126.508 116.958 126.508 116.958C138.649 76.1511 155.898 37.0421 177.846 0.560547C177.846 0.560547 212.636 40.5051 238.163 116.958Z" fill="#AFC0E0"/>
<path d="M242.889 452.451C239.987 463.875 236.755 475.495 233.191 487.31C231.501 492.946 229.719 498.627 227.846 504.354C227.846 504.354 200.57 532.768 134.685 504.354C134.685 504.354 132.547 498.329 129.34 487.31C126.942 478.987 123.956 467.831 120.841 454.254C120.841 454.254 145.368 464.723 180.181 464.723C201.687 464.796 222.997 460.626 242.889 452.451Z" fill="#AFC0E0"/>
<path d="M233.192 487.31C231.502 492.946 229.72 498.627 227.847 504.354C227.847 504.354 200.571 532.768 134.686 504.354C134.686 504.354 132.548 498.329 129.341 487.31C129.333 487.31 196.485 506.629 233.192 487.31Z" fill="#E3E8F4"/>
<path opacity="0.2" d="M172.875 187.371L172.791 187.432L144.613 223.81C144.613 224.116 144.613 224.421 144.613 224.734C144.608 231.003 146.125 237.18 149.035 242.733L182.237 185.95L172.875 187.371Z" fill="white"/>
<path opacity="0.2" d="M181.869 220.206L158.793 254.759C156.02 252.476 153.574 249.821 151.523 246.871L179.013 217.365L181.869 220.206Z" fill="white"/>
<path opacity="0.2" d="M149.432 504.362C149.432 504.362 142.849 485.798 135.61 454.261C119.674 384.895 100.56 252.721 141.284 116.958C152.231 80.2238 167.306 44.8488 186.222 11.5108C181.053 4.26412 177.823 0.568237 177.823 0.568237C155.883 37.0483 138.642 76.1547 126.508 116.958C85.7845 252.721 104.898 384.895 120.834 454.261C128.073 485.798 134.656 504.362 134.656 504.362C160.687 515.579 180.686 517.931 195.363 516.679C182.824 515.724 167.598 512.189 149.432 504.362Z" fill="white"/>
<path d="M655.538 557.181C655.538 557.181 691.229 512.769 688.862 468.289C687.751 449.641 692.719 431.137 703.02 415.553C707.977 408.182 713.6 401.28 719.819 394.936" stroke="#535461" stroke-width="2" stroke-miterlimit="10"/>
<path d="M718.468 366.927C715.917 373.119 719.735 395.699 719.735 395.699C719.735 395.699 738.345 382.352 740.895 376.159C742.119 373.185 742.112 369.846 740.875 366.877C739.637 363.909 737.271 361.553 734.297 360.329C731.323 359.105 727.985 359.112 725.016 360.349C722.048 361.587 719.692 363.953 718.468 366.927Z" fill="#045EFF"/>
<path d="M685.8 393.607C687.029 400.19 702.508 417.066 702.508 417.066C702.508 417.066 710.908 395.753 709.648 389.163C709.058 386.001 707.237 383.202 704.584 381.383C701.931 379.563 698.664 378.872 695.502 379.461C692.339 380.051 689.541 381.872 687.721 384.525C685.902 387.178 685.211 390.445 685.8 393.607Z" fill="#045EFF"/>
<path d="M662.48 452.573C666.863 457.636 688.748 464.394 688.748 464.394C688.748 464.394 685.205 441.768 680.822 436.698C678.694 434.347 675.731 432.923 672.566 432.73C669.401 432.538 666.287 433.593 663.891 435.669C661.494 437.745 660.006 440.677 659.745 443.836C659.484 446.996 660.471 450.132 662.495 452.573H662.48Z" fill="#045EFF"/>
<path d="M654.882 501.162C658.341 506.897 678.768 517.251 678.768 517.251C678.768 517.251 679.104 494.343 675.645 488.616C674.821 487.253 673.736 486.065 672.454 485.121C671.171 484.176 669.715 483.494 668.168 483.113C666.622 482.731 665.015 482.658 663.44 482.897C661.866 483.137 660.353 483.684 658.99 484.508C657.627 485.331 656.439 486.416 655.495 487.698C654.551 488.981 653.868 490.437 653.487 491.984C653.105 493.53 653.032 495.137 653.272 496.712C653.511 498.287 654.058 499.799 654.882 501.162Z" fill="#045EFF"/>
<path d="M725.561 427.962C719.346 430.444 696.804 426.397 696.804 426.397C696.804 426.397 710.335 407.925 716.558 405.436C719.546 404.242 722.885 404.284 725.841 405.552C728.798 406.82 731.129 409.21 732.323 412.197C733.517 415.185 733.475 418.524 732.207 421.48C730.939 424.437 728.549 426.768 725.561 427.962Z" fill="#045EFF"/>
<path d="M715.956 484.676C709.282 485.188 688.985 474.581 688.985 474.581C688.985 474.581 707.419 460.996 714.101 460.485C717.27 460.308 720.382 461.38 722.77 463.472C725.158 465.563 726.631 468.507 726.874 471.672C727.117 474.837 726.11 477.971 724.069 480.402C722.028 482.833 719.115 484.367 715.956 484.676Z" fill="#045EFF"/>
<path d="M699.056 538.51C692.558 540.144 670.765 533.119 670.765 533.119C670.765 533.119 686.64 516.618 693.138 514.991C694.683 514.602 696.289 514.522 697.864 514.754C699.439 514.986 700.954 515.526 702.32 516.343C703.687 517.16 704.88 518.239 705.83 519.517C706.78 520.795 707.469 522.247 707.857 523.792C708.246 525.336 708.326 526.942 708.094 528.517C707.862 530.093 707.322 531.607 706.505 532.974C705.688 534.34 704.609 535.533 703.331 536.483C702.053 537.433 700.601 538.122 699.056 538.51Z" fill="#045EFF"/>
<path opacity="0.25" d="M718.468 366.927C715.917 373.119 719.735 395.699 719.735 395.699C719.735 395.699 738.345 382.352 740.895 376.159C742.119 373.185 742.112 369.846 740.875 366.877C739.637 363.909 737.271 361.553 734.297 360.329C731.323 359.105 727.985 359.112 725.016 360.349C722.048 361.587 719.692 363.953 718.468 366.927Z" fill="black"/>
<path opacity="0.25" d="M685.8 393.607C687.029 400.19 702.508 417.066 702.508 417.066C702.508 417.066 710.908 395.753 709.648 389.163C709.058 386.001 707.237 383.202 704.584 381.383C701.931 379.563 698.664 378.872 695.502 379.461C692.339 380.051 689.541 381.872 687.721 384.525C685.902 387.178 685.211 390.445 685.8 393.607Z" fill="black"/>
<path opacity="0.25" d="M662.48 452.573C666.863 457.636 688.748 464.394 688.748 464.394C688.748 464.394 685.205 441.768 680.822 436.698C678.694 434.347 675.731 432.923 672.566 432.73C669.401 432.538 666.287 433.593 663.891 435.669C661.494 437.745 660.006 440.677 659.745 443.836C659.484 446.996 660.471 450.132 662.495 452.573H662.48Z" fill="black"/>
<path opacity="0.25" d="M654.882 501.162C658.341 506.897 678.768 517.251 678.768 517.251C678.768 517.251 679.104 494.343 675.645 488.616C674.821 487.253 673.736 486.065 672.454 485.121C671.171 484.176 669.715 483.494 668.168 483.113C666.622 482.731 665.015 482.658 663.44 482.897C661.866 483.137 660.353 483.684 658.99 484.508C657.627 485.331 656.439 486.416 655.495 487.698C654.551 488.981 653.868 490.437 653.487 491.984C653.105 493.53 653.032 495.137 653.272 496.712C653.511 498.287 654.058 499.799 654.882 501.162Z" fill="black"/>
<path opacity="0.25" d="M725.561 427.962C719.346 430.444 696.804 426.397 696.804 426.397C696.804 426.397 710.335 407.925 716.558 405.436C719.546 404.242 722.885 404.284 725.841 405.552C728.798 406.82 731.129 409.21 732.323 412.197C733.517 415.185 733.475 418.524 732.207 421.48C730.939 424.437 728.549 426.768 725.561 427.962Z" fill="black"/>
<path opacity="0.25" d="M715.956 484.676C709.282 485.188 688.985 474.581 688.985 474.581C688.985 474.581 707.419 460.996 714.101 460.485C717.27 460.308 720.382 461.38 722.77 463.472C725.158 465.563 726.631 468.507 726.874 471.672C727.117 474.837 726.11 477.971 724.069 480.402C722.028 482.833 719.115 484.367 715.956 484.676Z" fill="black"/>
<path opacity="0.25" d="M699.056 538.51C692.558 540.144 670.765 533.119 670.765 533.119C670.765 533.119 686.64 516.618 693.138 514.991C694.683 514.602 696.289 514.522 697.864 514.754C699.439 514.986 700.954 515.526 702.32 516.343C703.687 517.16 704.88 518.239 705.83 519.517C706.78 520.795 707.469 522.247 707.857 523.792C708.246 525.336 708.326 526.942 708.094 528.517C707.862 530.093 707.322 531.607 706.505 532.974C705.688 534.34 704.609 535.533 703.331 536.483C702.053 537.433 700.601 538.122 699.056 538.51Z" fill="black"/>
<path d="M655.859 555.325C655.859 555.325 706.487 529.179 722.347 487.562C728.886 470.061 740.928 455.154 756.664 445.082C764.17 440.355 772.094 436.327 780.336 433.048" stroke="#535461" stroke-width="2" stroke-miterlimit="10"/>
<path d="M790.485 406.879C785.644 411.514 779.985 433.705 779.985 433.705C779.985 433.705 802.405 429.039 807.246 424.412C809.575 422.189 810.926 419.132 811.001 415.914C811.076 412.695 809.87 409.578 807.647 407.249C805.425 404.92 802.368 403.57 799.149 403.495C795.931 403.419 792.814 404.626 790.485 406.848V406.879Z" fill="#045EFF"/>
<path d="M749.816 418.035C748.289 424.556 755.581 446.289 755.581 446.289C755.581 446.289 771.838 430.199 773.411 423.64C774.142 420.516 773.605 417.229 771.917 414.5C770.229 411.771 767.528 409.822 764.406 409.08C761.284 408.339 757.996 408.865 755.261 410.543C752.526 412.222 750.568 414.916 749.816 418.035Z" fill="#045EFF"/>
<path d="M704.594 462.493C706.549 468.9 723.822 483.943 723.822 483.943C723.822 483.943 729.755 461.798 727.8 455.422C727.336 453.898 726.576 452.481 725.564 451.251C724.552 450.021 723.308 449.002 721.902 448.253C720.496 447.504 718.957 447.039 717.371 446.885C715.786 446.73 714.185 446.89 712.662 447.354C711.138 447.819 709.721 448.578 708.49 449.591C707.26 450.603 706.242 451.847 705.493 453.253C704.743 454.659 704.278 456.198 704.124 457.783C703.97 459.369 704.13 460.969 704.594 462.493Z" fill="#045EFF"/>
<path d="M677.958 503.835C678.798 510.486 693.276 528.225 693.276 528.225C693.276 528.225 702.867 507.431 702.019 500.78C701.614 497.59 699.958 494.69 697.416 492.721C694.873 490.751 691.652 489.872 688.461 490.277C685.271 490.682 682.372 492.338 680.402 494.88C678.432 497.423 677.553 500.644 677.958 503.835Z" fill="#045EFF"/>
<path d="M772.24 465.555C765.543 465.311 746.583 452.474 746.583 452.474C746.583 452.474 766.437 441.073 773.134 441.318C774.725 441.377 776.289 441.748 777.737 442.411C779.185 443.074 780.488 444.016 781.572 445.183C782.656 446.35 783.499 447.719 784.054 449.212C784.609 450.704 784.864 452.292 784.806 453.883C784.747 455.475 784.375 457.039 783.712 458.487C783.049 459.934 782.107 461.238 780.94 462.321C779.773 463.405 778.405 464.249 776.912 464.803C775.419 465.358 773.832 465.614 772.24 465.555Z" fill="#045EFF"/>
<path d="M740.475 513.51C734.16 511.272 719.903 493.35 719.903 493.35C719.903 493.35 742.27 488.41 748.577 490.647C750.078 491.179 751.46 492.002 752.643 493.068C753.827 494.134 754.788 495.422 755.474 496.86C756.159 498.297 756.554 499.856 756.637 501.447C756.72 503.037 756.489 504.628 755.957 506.129C755.425 507.631 754.603 509.012 753.537 510.196C752.471 511.379 751.182 512.341 749.745 513.026C748.307 513.711 746.748 514.107 745.158 514.19C743.568 514.273 741.976 514.042 740.475 513.51Z" fill="#045EFF"/>
<path d="M703.203 555.883C696.606 554.745 679.531 539.488 679.531 539.488C679.531 539.488 700.737 530.844 707.334 531.982C710.504 532.528 713.326 534.312 715.181 536.94C717.035 539.568 717.77 542.824 717.223 545.994C716.676 549.163 714.893 551.986 712.265 553.84C709.637 555.695 706.38 556.43 703.211 555.883H703.203Z" fill="#045EFF"/>
<path d="M727.845 530.783L688.602 473.871C688.602 473.871 687.839 459.782 685.304 456.491C682.768 453.2 684.754 445.877 684.754 445.877C684.754 445.877 687.503 441.853 685.12 441.486C682.738 441.119 684.754 432.147 684.754 432.147L684.571 417.875C684.571 417.875 686.77 404.13 684.937 400.862C684.401 399.972 684.133 398.945 684.165 397.906C684.198 396.867 684.529 395.86 685.12 395.005C685.12 395.005 687.32 387.132 685.12 385.124C682.921 383.115 683.471 370.844 684.021 361.146C684.571 351.448 680.165 345.958 680.165 344.492C680.165 343.026 665.656 328.754 665.656 327.479C665.656 326.203 656.493 320.889 650.987 319.422C645.481 317.956 642.732 316.864 642.916 316.131C643.099 315.398 634.294 312.474 634.294 312.474C634.294 312.474 626.589 311.924 623.65 308.075C620.71 304.227 611.745 303.127 611.485 303.089C611.432 302.837 611.371 302.577 611.317 302.325C611.264 302.073 611.203 301.775 611.149 301.5C611.844 300.332 612.486 299.141 613.066 297.912C613.242 297.537 613.41 297.148 613.57 296.797C616.785 296.652 620.084 295.964 622.603 293.994C623.898 292.911 624.956 291.573 625.711 290.064C626.467 288.554 626.903 286.906 626.994 285.22C627.15 281.838 626.41 278.474 624.848 275.469C623.245 272.17 620.885 268.757 621.695 265.183C622.054 263.656 622.978 262.281 623.451 260.769C624.344 257.906 623.52 254.76 622.13 252.102C620.74 249.445 618.808 247.108 617.266 244.535C615.295 241.256 613.981 237.625 613.394 233.844C613.081 231.859 612.959 229.767 611.959 228.018C611.13 226.72 610.034 225.614 608.744 224.773C603.006 220.669 596.078 218.568 589.027 218.794C584.033 218.969 579.055 220.321 574.099 219.702C571.113 219.336 568.265 218.274 565.378 217.411C559.224 215.594 552.13 214.846 546.769 218.366C541.409 221.886 539.278 228.812 535.651 234.226C532.444 239.022 527.74 243.038 525.296 248.109C525.296 248.017 525.342 247.918 525.373 247.819C524.772 248.992 524.313 250.233 524.006 251.514C523.074 255.5 523.853 259.67 524.823 263.648C525.319 265.702 526.006 267.932 527.786 269.07C529.565 270.208 532.085 269.956 534.192 270.33C534.116 270.673 534.024 271.025 533.948 271.376C531.765 281.687 533.547 292.441 538.937 301.498C544.327 310.554 552.93 317.249 563.034 320.247C563.034 320.621 563.034 321.011 563.034 321.362C563.03 322.414 562.966 323.464 562.843 324.508C562.843 324.508 544.402 320.69 539.446 323.286C534.49 325.883 524.769 327.868 523.303 329.319C521.837 330.77 518.172 329.685 514.904 338.291C511.635 346.897 511.238 355.671 507.015 359.673C502.793 363.674 500.601 366.446 500.418 369.378C500.235 372.31 500.968 373.036 499.311 373.96C497.654 374.884 495.279 378.717 496.012 380.183C496.012 380.183 496.928 383.841 493.996 385.666C491.064 387.491 491.422 391.156 491.422 391.156C491.422 391.156 490.323 395.188 487.757 396.097C485.191 397.006 483.534 403.053 483.534 403.053L475.188 412.637L458.702 394.386C457.467 393.019 455.74 392.197 453.9 392.103C452.06 392.008 450.257 392.648 448.889 393.882L440.795 401.182C437.671 401.94 434.847 403.622 432.693 406.009C430.929 407.82 429.509 409.936 428.501 412.255L424.064 416.241C422.67 417.97 421.818 420.073 421.615 422.285C421.413 424.497 421.869 426.719 422.926 428.673L433.487 440.348L433.556 440.447C429.562 440.951 426.034 442.234 423.339 444.609C407.57 458.515 407.379 471.336 409.769 477.177C412.159 483.019 432.143 505.545 432.143 505.545C432.143 505.545 443.758 520.642 460.527 528.675L460.397 528.805C460.069 529.156 459.74 529.569 459.419 529.951L459.145 530.302L458.893 530.653L458.595 531.096C458.511 531.21 458.434 531.333 458.358 531.455C458.282 531.577 458.144 531.798 458.045 531.982L457.839 532.333C457.717 532.562 457.587 532.799 457.465 533.043L457.342 533.28C457.19 533.601 457.037 533.929 456.892 534.273C456.838 534.395 456.793 534.525 456.739 534.647C456.648 534.883 456.548 535.128 456.457 535.41C456.365 535.693 456.342 535.723 456.289 535.884C456.235 536.044 456.128 536.357 456.052 536.602C455.976 536.846 455.945 536.945 455.899 537.113C455.853 537.281 455.746 537.648 455.678 537.923C455.609 538.198 455.594 538.243 455.548 538.419C455.449 538.839 455.349 539.274 455.265 539.732C455.265 539.9 455.204 540.076 455.174 540.252C455.113 540.557 455.059 540.87 455.013 541.191C454.975 541.412 454.952 541.634 454.922 541.855C454.891 542.077 454.845 542.458 454.807 542.764L454.738 543.466C454.738 543.802 454.677 544.154 454.654 544.505C454.654 544.719 454.654 544.933 454.616 545.146C454.616 545.727 454.555 546.307 454.548 546.918C454.181 568.299 455.433 571.438 455.433 571.438C455.433 571.438 458.022 578.257 465.169 578.745C466.218 578.822 467.273 578.766 468.308 578.577C477.845 576.928 500.219 573.087 508.107 574.553C512.849 575.431 521.631 574.133 527.885 572.95L529.527 572.636L530.672 576.271L534.299 575.279L537.354 577.058L539.301 578.173C542.92 590.452 557.628 586.267 557.628 586.267L561.079 588.268L596.48 589.184C596.48 589.184 604.116 593.766 609.011 595.201C609.593 595.377 610.188 595.508 610.79 595.591C614.072 595.854 617.367 595.915 620.656 595.774C623.367 595.705 625.467 595.591 625.467 595.591C625.467 595.591 625.108 585.977 624.589 575.217C638.12 574.652 650.116 573.805 657.378 572.53C676.285 569.208 684.174 552.019 687.075 542.833C687.947 546.587 688.567 550.396 688.931 554.233C689.701 557.586 690.683 560.886 691.871 564.115C692.903 566.712 694.258 569.17 695.903 571.43C709.846 566.673 701.408 559.54 698.468 556.425C695.528 553.309 700.492 550.751 700.492 550.751C700.492 550.751 704.31 548.193 703.974 545.811C703.638 543.428 703.424 540.87 715.894 541.053C728.364 541.237 727.845 530.783 727.845 530.783ZM534.147 413.95C534.307 414.996 536.048 426.275 537.621 429.222C537.949 429.848 538.079 432.071 538.033 435.247C530.642 434.659 522.944 434.346 522.944 434.346C523.166 434.614 523.304 434.94 523.341 435.285L522.181 435.026L520.493 434.613L534.108 413.904L534.147 413.95ZM507.176 456.865L519.966 458.896L521.043 459.064C520.676 461.059 520.454 463.078 520.379 465.105C520.379 465.295 520.669 465.524 521.081 465.792C520.902 466.8 520.818 467.822 520.829 468.846C521.035 469.862 527.014 472.046 533.872 473.863C533.78 474.23 533.688 474.581 533.597 474.909C527.541 471.725 517.996 470.236 516.897 467.869C515.797 465.502 483.298 454.124 483.298 454.124C483.298 454.124 482.114 453.498 480.067 452.505L488.62 454.124L490.972 453.887C496.304 455.221 501.717 456.211 507.176 456.85V456.865Z" fill="url(#paint0_linear)"/>
<path d="M686.09 538.747C686.09 538.747 681.004 569.467 655.187 574.011C629.369 578.554 543.195 577.646 543.195 577.646C543.195 577.646 493.927 570.559 476.112 528.927C458.297 487.295 446.843 470.748 462.115 470.022C477.387 469.297 559.743 497.841 564.439 498.199C569.135 498.558 690.634 434.934 686.09 538.747Z" fill="#434175"/>
<path opacity="0.05" d="M686.09 538.747C686.09 538.747 681.004 569.467 655.187 574.011C629.369 578.554 543.195 577.646 543.195 577.646C543.195 577.646 493.927 570.559 476.112 528.927C458.297 487.295 446.843 470.748 462.115 470.022C477.387 469.297 559.743 497.841 564.439 498.199C569.135 498.558 690.634 434.934 686.09 538.747Z" fill="black"/>
<path d="M454.992 572.919C454.992 572.919 457.565 579.7 464.644 580.181C465.683 580.254 466.727 580.198 467.752 580.013C477.205 578.379 499.388 574.561 507.2 576.012C511.904 576.89 520.601 575.592 526.794 574.423C530.918 573.66 533.926 572.896 533.926 572.896C533.926 572.896 526.657 548.72 525.74 547.995C524.824 547.269 493.019 528.179 493.019 528.179L467.82 526.369H467.744C467.744 526.369 463.078 526.682 459.207 531.386C456.542 534.601 454.258 539.885 454.106 548.544C453.754 569.826 454.992 572.919 454.992 572.919Z" fill="#565387"/>
<path opacity="0.05" d="M454.991 572.919C454.991 572.919 457.564 579.7 464.643 580.181C462.159 576.989 459.864 573.653 457.77 570.193L457.9 552.561C456.777 539.358 462.955 530.905 467.827 526.392H467.751C467.751 526.392 454.479 527.293 454.112 548.537C453.746 569.78 454.991 572.919 454.991 572.919Z" fill="black"/>
<path opacity="0.1" d="M564.287 534.379L587.738 516.052L624.643 479.689C624.643 479.689 620.657 479.498 614.647 479.239C613.12 480.193 608.958 483.194 608.806 486.875C608.622 491.319 598.825 487.18 593.74 489.723C588.654 492.266 563.745 524.147 559.377 523.94C555.009 523.734 551.565 521.726 549.74 524.819C549.74 524.887 549.656 524.948 549.61 525.017L564.287 534.379Z" fill="black"/>
<path opacity="0.1" d="M459.214 531.401C460.046 531.806 460.886 532.165 461.749 532.562C479.572 540.198 501.564 556.234 503.206 559.105C504.198 560.877 516.951 568.62 526.794 574.423C530.917 573.66 533.926 572.896 533.926 572.896C533.926 572.896 526.656 548.72 525.74 547.995C524.823 547.269 493.019 528.179 493.019 528.179L467.82 526.369H467.743C467.743 526.369 463.085 526.698 459.214 531.401Z" fill="black"/>
<path d="M409.762 479.292C412.122 485.111 431.907 507.477 431.907 507.477C431.907 507.477 444.445 523.834 462.268 531.47C480.091 539.106 502.083 555.142 503.717 558.013C504.771 559.884 518.989 568.436 528.977 574.316L531.215 575.622L536.178 578.501L538.805 580.028C538.805 580.028 544.914 575.141 550.954 570.223C556.994 565.305 562.889 560.487 562.989 560.212C563.164 559.67 565.524 553.485 564.982 553.126C564.699 552.935 563.455 550.415 561.164 547.498C558.719 544.26 555.546 541.644 551.901 539.862C543.501 536.044 539.905 527.354 539.905 527.354C539.905 527.354 539.141 526.774 537.896 526.01C535.743 524.651 532.284 522.696 529.726 522.368C525.717 521.864 518.272 513.685 518.272 513.685C518.272 513.685 513.178 510.409 511.178 506.232C509.269 502.246 481.076 482.881 478.464 481.094L546.815 524.987L563.172 535.502L586.623 517.175L623.536 480.812C623.536 480.812 618.572 480.567 611.318 480.262C593.38 479.498 561.523 478.269 557.498 479.178C554.222 479.941 550.843 480.16 547.495 479.827C547.495 479.827 538.423 480.239 532.421 477.07C526.419 473.901 516.958 472.42 515.866 470.075C514.774 467.731 482.596 456.445 482.596 456.445C482.596 456.445 438.787 433.178 423.148 446.999C407.51 460.82 407.395 473.481 409.762 479.292Z" fill="#434175"/>
<path d="M551.016 345.859L556.651 364.582L563.921 406.757L590.647 408.574L598.382 395.745L606.133 382.94C606.133 382.94 610.944 365.896 614.403 349.409C617.458 334.824 619.458 320.667 616.129 319.132C613.181 317.765 611.242 312.855 610.02 307.571C609.86 306.922 609.715 306.258 609.577 305.593C608.686 301.12 608.095 296.592 607.805 292.039C607.805 292.039 551.81 289.138 559.629 312.222C561.025 316.165 561.737 320.317 561.737 324.5C561.729 325.544 561.665 326.587 561.546 327.624C561.148 331.226 560.007 334.707 558.194 337.846C556.381 340.985 553.937 343.713 551.016 345.859Z" fill="#C56D45"/>
<path d="M539.378 342.766L541.379 374.578L545.922 401.663L551.015 414.21L555.559 482.843C555.559 482.843 599.398 487.913 610.058 482.751C610.826 482.424 611.493 481.896 611.99 481.224C624.864 461.806 620.642 405.481 620.642 405.481L625.552 369.111L622.276 350.234L614.372 349.394L608.263 348.745C608.263 348.745 606.889 350.44 604.904 353.059C599.512 360.176 589.631 374.173 590.265 380.015C591.166 388.018 589.173 396.196 586.08 397.471C582.988 398.746 580.445 400.923 579.903 398.746C579.361 396.57 578.811 396.02 579.353 392.928C579.895 389.835 576.986 380.382 576.986 380.382C576.986 380.382 572.083 369.294 572.404 364.567C572.725 359.84 571.862 354.38 570.404 353.113C568.945 351.845 566.952 350.562 568.586 344.713C570.22 338.864 561.416 327.57 561.416 327.57L539.378 342.766Z" fill="#E3E8F4"/>
<path opacity="0.1" d="M597.281 422.22L599.098 476.581L609.598 482.4C610.366 482.072 611.033 481.545 611.53 480.873C624.412 461.424 620.189 405.107 620.189 405.107L625.099 368.744L621.823 349.875L613.912 349.035C616.967 334.45 618.967 320.293 615.646 318.758C612.69 317.391 610.751 312.481 609.491 307.197L603.84 345.683C603.84 345.683 604.314 349.15 604.482 352.723C604.611 355.381 604.566 358.069 604.023 359.497C602.748 362.773 603.657 368.591 603.657 368.591C600.381 374.364 598.747 385.062 597.945 395.394C596.868 409.132 597.281 422.22 597.281 422.22Z" fill="black"/>
<path d="M609.669 306.357C609.669 306.357 618.832 307.495 621.734 311.313C624.635 315.131 632.279 315.658 632.279 315.658C632.279 315.658 641.007 318.567 640.824 319.293C640.641 320.018 643.367 321.118 648.827 322.568C654.286 324.019 663.335 329.296 663.335 330.571C663.335 331.846 677.699 346.019 677.699 347.477C677.699 348.936 682.067 354.35 681.517 364.017C680.967 373.685 680.425 385.834 682.609 387.834C684.793 389.835 682.609 397.654 682.609 397.654C682.03 398.51 681.711 399.514 681.69 400.547C681.67 401.579 681.949 402.596 682.494 403.473C684.312 406.749 682.135 420.387 682.135 420.387L682.311 434.567C682.311 434.567 680.31 443.471 682.678 443.838C685.045 444.204 682.311 448.198 682.311 448.198C682.311 448.198 680.31 455.475 682.861 458.743C685.411 462.012 686.129 476.016 686.129 476.016L725.073 532.524C725.073 532.524 725.623 542.886 713.26 542.703C700.897 542.519 701.043 545.07 701.44 547.429C701.837 549.789 697.988 552.339 697.988 552.339C697.988 552.339 693.078 554.882 695.987 557.975C698.897 561.068 707.258 568.154 693.445 572.881C691.81 570.636 690.465 568.193 689.443 565.611C688.271 562.404 687.299 559.127 686.534 555.799C686.534 555.799 685.259 541.977 682.716 540.16C680.173 538.342 680.532 529.614 680.532 529.614C680.532 529.614 684.167 522.528 679.081 519.619C673.995 516.709 600.1 475.841 600.1 475.841L598.283 421.479C598.283 421.479 597.008 381.305 604.644 367.851C604.644 367.851 603.735 362.032 605.011 358.764C606.286 355.495 604.827 344.942 604.827 344.942L609.669 306.357Z" fill="#565387"/>
<path opacity="0.1" d="M562.019 328.166C562.019 328.166 543.746 324.401 538.836 326.944C533.926 329.487 524.327 331.526 522.8 332.946C521.273 334.366 517.707 333.313 514.438 341.857C511.17 350.402 510.796 359.123 506.619 363.124C502.442 367.125 500.258 369.851 500.075 372.761C499.891 375.67 500.617 376.396 498.983 377.343C497.349 378.289 494.981 382.069 495.707 383.528C496.432 384.986 533.59 416.936 533.59 416.936C533.59 416.936 535.415 429.154 537.049 432.208C538.683 435.263 535.231 477.842 531.597 480.751C527.962 483.66 556.139 483.393 556.139 483.393C556.139 483.393 557.407 455.483 558.499 454.024C559.591 452.566 557.735 422.716 557.735 422.716C557.735 422.716 557.552 397.265 559.919 390.538C562.286 383.81 562.019 361.475 562.019 361.475C562.019 361.475 564.111 348.058 566.654 344.927C569.197 341.796 562.019 328.166 562.019 328.166Z" fill="black"/>
<path d="M561.476 327.624C561.476 327.624 543.195 323.859 538.285 326.402C533.375 328.945 523.776 330.945 522.287 332.404C520.798 333.862 517.202 332.763 513.888 341.308C510.574 349.852 510.253 358.58 506.068 362.582C501.884 366.583 499.707 369.309 499.524 372.219C499.341 375.128 500.074 375.853 498.44 376.762C496.806 377.671 494.438 381.489 495.164 382.94C495.889 384.391 532.978 416.394 532.978 416.394C532.978 416.394 534.795 428.611 536.429 431.666C538.064 434.72 534.612 477.292 530.977 480.201C527.343 483.11 555.52 482.843 555.52 482.843C555.52 482.843 556.795 454.933 557.887 453.482C558.979 452.031 557.123 422.174 557.123 422.174C557.123 422.174 556.948 396.723 559.307 389.995C561.667 383.268 561.407 360.902 561.407 360.902C561.407 360.902 563.5 347.485 566.035 344.362C568.57 341.239 561.476 327.624 561.476 327.624Z" fill="#565387"/>
<path opacity="0.1" d="M559.552 312.222C560.948 316.165 561.66 320.317 561.66 324.5C570.6 327.149 580.17 326.726 588.841 323.299C597.513 319.871 604.786 313.638 609.5 305.593C608.61 301.12 608.018 296.592 607.729 292.039C607.729 292.039 551.74 289.138 559.552 312.222Z" fill="black"/>
<path d="M531.925 283.494C531.934 294.159 536.036 304.413 543.384 312.142C550.732 319.872 560.766 324.486 571.416 325.035C582.067 325.583 592.521 322.023 600.624 315.09C608.727 308.156 613.86 298.377 614.965 287.77C616.07 277.163 613.062 266.536 606.562 258.082C600.061 249.627 590.564 243.99 580.03 242.332C569.495 240.674 558.725 243.122 549.942 249.171C541.159 255.22 535.033 264.409 532.826 274.843C532.224 277.687 531.922 280.587 531.925 283.494Z" fill="#C56D45"/>
<path d="M505.198 379.847L495.202 382.94C495.202 382.94 496.111 386.574 493.202 388.392C490.292 390.209 490.659 393.852 490.659 393.852C490.659 393.852 489.567 397.845 487.024 398.754C484.481 399.663 482.839 405.626 482.839 405.626L474.478 415.263C474.478 415.263 471.385 417.806 471.935 419.081C472.485 420.357 468.659 420.715 468.659 420.715L470.66 453.108L487.933 456.384L498.623 455.292L507.351 452.016L514.988 447.434L518.47 438.599L533.742 415.332L505.198 379.847Z" fill="#565387"/>
<path d="M471.203 423.327C471.203 423.327 449.058 391.324 432.48 408.597C415.902 425.87 439.208 453.864 444.66 452.955C450.112 452.046 476.113 450.596 476.113 450.596L471.203 423.327Z" fill="#C56D45"/>
<path d="M445.859 401.029L425.344 419.533C421.392 423.098 421.078 429.192 424.643 433.144L447.433 458.41C450.998 462.363 457.092 462.677 461.044 459.112L481.559 440.608C485.511 437.043 485.825 430.949 482.26 426.997L459.47 401.73C455.905 397.778 449.812 397.464 445.859 401.029Z" fill="#30374E"/>
<path opacity="0.1" d="M445.859 401.029L425.344 419.533C421.392 423.098 421.078 429.192 424.643 433.144L447.433 458.41C450.998 462.363 457.092 462.677 461.044 459.112L481.559 440.608C485.511 437.043 485.825 430.949 482.26 426.997L459.47 401.73C455.905 397.778 449.812 397.464 445.859 401.029Z" fill="black"/>
<path d="M446.485 398.394L425.969 416.898C422.017 420.463 421.703 426.556 425.268 430.508L448.058 455.775C451.623 459.727 457.717 460.041 461.669 456.476L482.184 437.972C486.136 434.407 486.45 428.314 482.885 424.362L460.095 399.095C456.53 395.143 450.437 394.829 446.485 398.394Z" fill="#30374E"/>
<path d="M453.495 439.111C459.218 439.111 463.857 434.471 463.857 428.748C463.857 423.026 459.218 418.386 453.495 418.386C447.772 418.386 443.133 423.026 443.133 428.748C443.133 434.471 447.772 439.111 453.495 439.111Z" fill="#045EFF"/>
<path opacity="0.1" d="M453.495 439.111C459.218 439.111 463.857 434.471 463.857 428.748C463.857 423.026 459.218 418.386 453.495 418.386C447.772 418.386 443.133 423.026 443.133 428.748C443.133 434.471 447.772 439.111 453.495 439.111Z" fill="black"/>
<path d="M454.075 437.798C459.798 437.798 464.437 433.158 464.437 427.435C464.437 421.713 459.798 417.073 454.075 417.073C448.352 417.073 443.713 421.713 443.713 427.435C443.713 433.158 448.352 437.798 454.075 437.798Z" fill="#045EFF"/>
<path d="M456.847 430.024C456.664 454.024 506.299 459.11 506.299 459.11L518.975 461.126L524.656 462.027L527.023 438.599C527.023 438.599 524.419 438.21 521.166 437.454C516.363 436.331 510.14 434.399 508.834 431.688C506.658 427.145 457.023 406.031 456.847 430.024Z" fill="#C56D45"/>
<path opacity="0.1" d="M532.825 274.843C533.97 274.927 535.05 275.408 535.88 276.202C537.285 277.691 537.361 280.333 539.186 281.249C539.868 281.546 540.623 281.634 541.355 281.501C546.188 280.814 548.991 275.393 553.626 273.865C556.268 273.01 559.177 273.568 561.758 274.56C562.796 274.885 563.727 275.484 564.454 276.294C565.981 278.302 564.92 281.257 565.638 283.693C566.638 287.068 570.67 288.412 574.16 288.855C577.649 289.298 581.582 289.542 583.911 292.177C585.56 294.048 585.98 296.758 585.644 299.21C585.438 300.065 585.438 300.958 585.644 301.814C586.606 304.54 591.326 304.104 592.555 301.982C593.456 300.416 593.181 299.118 595.304 298.683C596.74 298.385 598.427 298.988 599.756 299.446C603.457 300.723 607.357 301.323 611.271 301.218C613.746 295.906 615.071 290.132 615.161 284.274C615.252 278.415 614.104 272.603 611.794 267.218C609.484 261.833 606.063 256.996 601.756 253.023C597.448 249.051 592.351 246.032 586.797 244.165C581.243 242.297 575.357 241.623 569.524 242.186C563.692 242.749 558.044 244.537 552.95 247.433C547.856 250.329 543.43 254.267 539.962 258.99C536.494 263.713 534.062 269.115 532.825 274.843Z" fill="black"/>
<path d="M585.623 300.714C585.417 299.858 585.417 298.966 585.623 298.11C585.951 295.643 585.539 292.94 583.889 291.077C581.599 288.443 577.628 288.191 574.138 287.755C570.648 287.32 566.616 285.976 565.616 282.601C564.898 280.165 565.983 277.202 564.433 275.194C563.71 274.385 562.781 273.788 561.745 273.468C559.156 272.468 556.247 271.941 553.605 272.766C548.969 274.293 546.167 279.73 541.333 280.402C540.601 280.534 539.847 280.447 539.165 280.15C537.34 279.233 537.263 276.591 535.858 275.11C533.651 272.773 529.459 274.278 526.756 272.544C524.992 271.406 524.312 269.2 523.824 267.161C522.861 263.205 522.09 259.059 523.014 255.103C524.595 248.338 530.65 243.702 534.468 237.93C538.065 232.546 540.081 225.712 545.487 222.169C550.894 218.625 557.835 219.412 563.929 221.222C566.784 222.069 569.61 223.123 572.565 223.513C577.483 224.116 582.416 222.749 587.364 222.612C594.353 222.386 601.221 224.471 606.905 228.545C608.185 229.383 609.273 230.484 610.097 231.775C611.082 233.516 611.211 235.593 611.509 237.563C612.087 241.321 613.383 244.933 615.327 248.2C616.855 250.758 618.771 253.08 620.153 255.722C621.535 258.364 622.345 261.487 621.459 264.328C620.993 265.855 620.069 267.176 619.726 268.711C618.916 272.262 621.253 275.652 622.849 278.928C624.395 281.916 625.127 285.258 624.972 288.618C624.882 290.291 624.45 291.928 623.701 293.427C622.952 294.926 621.903 296.255 620.619 297.331C618.046 299.347 614.663 300.019 611.402 300.126C607.413 300.26 603.432 299.663 599.658 298.362C598.322 297.904 596.604 297.3 595.206 297.598C593.083 298.034 593.358 299.332 592.457 300.897C591.296 303.035 586.585 303.44 585.623 300.714Z" fill="#434175"/>
<path opacity="0.1" d="M563.196 535.471L586.646 517.145L623.559 480.781C623.559 480.781 618.596 480.537 611.341 480.232C610.02 481.576 608.844 483.286 608.768 485.195C608.585 489.639 598.788 485.508 593.702 488.051C588.616 490.594 563.707 522.467 559.339 522.261C554.971 522.055 551.528 520.046 549.703 523.139C549.664 523.211 549.62 523.279 549.573 523.345C548.847 524.174 547.876 524.749 546.801 524.987L563.196 535.471Z" fill="black"/>
<path d="M515.928 534.196L527.71 571.811L529.558 577.722L535.171 576.194L547.541 572.796L602.644 557.662C602.644 557.662 612.998 557.524 622.498 552.37C632.997 546.658 644.841 543.787 656.738 544.902C664.023 545.581 672.125 542.443 678.883 530.026C678.883 530.026 694.155 484.973 655.608 471.992C617.061 459.01 615.228 478.864 615.228 478.864C615.228 478.864 615.029 478.971 614.709 479.185C613.181 480.14 609.02 483.141 608.867 486.821C608.684 491.265 598.887 487.127 593.801 489.67C588.715 492.212 563.806 524.093 559.438 523.887C555.071 523.681 551.627 521.673 549.802 524.765C549.802 524.834 549.718 524.895 549.672 524.964C548.328 526.819 544.281 527.255 541.6 527.323C540.142 527.369 539.08 527.323 539.08 527.323L538.737 527.43L535.881 528.224L515.928 534.196Z" fill="#434175"/>
<path opacity="0.1" d="M518.974 461.126L524.655 462.027L527.022 438.599C527.022 438.599 524.418 438.21 521.165 437.454C522.028 440.699 520.073 453.352 518.974 461.126Z" fill="black"/>
<path opacity="0.1" d="M667.635 351.547C667.635 351.547 684.542 346.637 680.357 394.638C676.173 442.639 644.91 472.962 644.91 472.962C644.91 472.962 608.914 488.776 592.733 486.233C576.552 483.691 564.739 483.179 564.739 483.179C559.646 480.605 554.073 479.12 548.374 478.819C539.28 478.452 520.197 472.817 519.83 470.999C519.464 469.182 524.557 442.455 522.373 440.455C522.373 440.455 547.825 441.501 550.375 443.341C552.925 445.182 556.553 443.861 559.279 443.341C562.005 442.822 570.374 435.545 586.914 441.913C586.914 441.913 592.549 442.455 594.733 441.005C596.917 439.554 600.415 440.638 600.415 440.638C600.415 440.638 603.843 439.363 604.37 438.599C604.897 437.836 609.272 438.599 609.272 438.599C609.532 438.726 609.817 438.793 610.106 438.796C610.396 438.799 610.682 438.736 610.944 438.614C611.206 438.492 611.437 438.313 611.621 438.089C611.805 437.866 611.936 437.605 612.006 437.324C612.577 435.836 613.442 434.477 614.549 433.33C614.549 433.33 619.459 405.695 628.729 395.333C628.729 395.333 631.455 392.966 630.73 390.056C630.005 387.147 645.842 345.721 667.635 351.547Z" fill="black"/>
<path d="M667.222 347.852C667.222 347.852 684.129 342.942 679.952 390.942C675.775 438.943 644.459 469.297 644.459 469.297C644.459 469.297 608.462 485.111 592.281 482.568C576.1 480.025 564.287 479.476 564.287 479.476C559.195 476.9 553.622 475.415 547.923 475.115C538.836 474.749 519.746 469.113 519.379 467.296C519.013 465.479 524.106 438.752 521.93 436.751C521.93 436.751 547.381 437.798 549.924 439.638C552.467 441.478 556.109 440.157 558.835 439.638C561.561 439.119 569.923 431.849 586.47 438.21C586.47 438.21 592.106 438.752 594.282 437.301C596.458 435.85 599.971 436.935 599.971 436.935C599.971 436.935 603.377 435.659 603.919 434.934C604.461 434.209 608.829 434.934 608.829 434.934C609.088 435.061 609.372 435.129 609.66 435.132C609.948 435.135 610.233 435.073 610.495 434.952C610.756 434.83 610.987 434.652 611.171 434.429C611.354 434.207 611.485 433.946 611.555 433.666C612.125 432.175 612.99 430.814 614.098 429.665C614.098 429.665 619.008 402.03 628.278 391.668C628.278 391.668 631.004 389.301 630.279 386.399C629.553 383.497 645.368 342.033 667.222 347.852Z" fill="#565387"/>
<path opacity="0.1" d="M535.881 528.225L559.889 557.242C559.98 557.158 560.042 557.097 560.042 557.074C560.225 556.524 562.584 550.347 562.042 549.98C561.5 549.614 557.315 540.527 548.954 536.709C543.845 534.418 540.501 530.225 538.676 527.354L535.881 528.225Z" fill="black"/>
<path opacity="0.1" d="M536.21 578.501L538.836 580.028C538.836 580.028 544.945 575.141 550.986 570.223C557.026 565.305 562.921 560.487 563.02 560.212C563.196 559.67 565.555 553.485 565.013 553.126C564.731 552.935 563.486 550.415 561.195 547.498C544.915 542.916 555.277 554.241 556.659 554.76C556.659 554.76 536.805 550.178 535.751 571.796C535.607 574.041 535.761 576.296 536.21 578.501Z" fill="black"/>
<path d="M556.283 587.649L559.743 589.65L594.869 590.558C594.869 590.558 602.398 595.14 607.285 596.53C607.861 596.709 608.451 596.84 609.049 596.919C612.3 597.182 615.565 597.244 618.823 597.102C621.511 597.034 623.596 596.919 623.596 596.919C623.596 596.919 621.931 552.63 620.679 548.048C620.083 545.818 617.143 546.307 614.242 547.422C612.062 548.306 609.959 549.371 607.957 550.606C607.957 550.606 593.051 552.049 590.684 553.332C588.317 554.615 581.597 552.569 577.413 553.332C573.228 554.096 565.783 548.407 565.783 548.407C545.417 541.687 556.871 554.226 558.322 554.775C558.322 554.775 538.514 550.194 537.422 571.812C536.33 593.429 556.283 587.649 556.283 587.649Z" fill="#565387"/>
<path d="M607.011 570.559C607.392 579.722 614.532 591.093 618.785 597.102C621.473 597.034 623.558 596.919 623.558 596.919C623.558 596.919 621.893 552.63 620.641 548.048C620.045 545.818 617.106 546.307 614.204 547.422C610.714 553.989 606.705 563.175 607.011 570.559Z" fill="#565387"/>
<path opacity="0.1" d="M607.011 570.559C607.392 579.722 614.532 591.093 618.785 597.102C621.473 597.034 623.558 596.919 623.558 596.919C623.558 596.919 621.893 552.63 620.641 548.048C620.045 545.818 617.106 546.307 614.204 547.422C610.714 553.989 606.705 563.175 607.011 570.559Z" fill="black"/>
<path opacity="0.05" d="M601.009 571.773C603.422 580.616 603.399 590.535 607.248 596.53C607.824 596.709 608.414 596.839 609.012 596.919C612.263 597.182 615.527 597.243 618.786 597.102C621.474 597.034 623.559 596.919 623.559 596.919C623.559 596.919 621.894 552.63 620.642 548.048C620.046 545.818 617.106 546.307 614.204 547.422C612.024 548.306 609.922 549.371 607.92 550.606C607.92 550.606 597.924 560.457 601.009 571.773Z" fill="black"/>
<path opacity="0.1" d="M479.961 482.08C479.961 482.08 497.387 487.738 512.155 507.836L479.961 482.08Z" fill="black"/>
<g opacity="0.1">
<path opacity="0.1" d="M621.581 263.931C621.553 264.06 621.517 264.188 621.474 264.313C621.307 264.835 621.106 265.345 620.871 265.84C621.05 265.184 621.288 264.545 621.581 263.931Z" fill="black"/>
<path opacity="0.1" d="M522.984 255.111C523.286 253.837 523.74 252.604 524.335 251.438C524.244 251.751 524.144 252.064 524.068 252.385C523.144 256.34 523.915 260.487 524.878 264.442C525.374 266.481 526.046 268.688 527.81 269.826C530.521 271.559 534.682 270.047 536.912 272.384C538.317 273.873 538.393 276.515 540.226 277.431C540.908 277.729 541.663 277.816 542.395 277.683C547.221 276.996 550.031 271.574 554.666 270.047C557.308 269.192 560.21 269.749 562.799 270.75C563.835 271.07 564.764 271.666 565.486 272.476C567.014 274.484 565.952 277.447 566.67 279.875C567.67 283.25 571.702 284.594 575.192 285.029C578.682 285.465 582.614 285.717 584.943 288.359C586.593 290.222 587.013 292.94 586.677 295.392C586.475 296.248 586.475 297.139 586.677 297.995C587.639 300.722 592.358 300.286 593.549 298.163C594.45 296.598 594.183 295.3 596.306 294.865C597.734 294.567 599.421 295.17 600.75 295.628C604.524 296.929 608.505 297.527 612.494 297.392C615.755 297.278 619.146 296.629 621.711 294.597C622.884 293.663 623.846 292.492 624.537 291.161C623.938 293.584 622.572 295.749 620.642 297.331C618.076 299.347 614.694 300.019 611.425 300.126C607.438 300.261 603.46 299.663 599.689 298.362C598.352 297.904 596.634 297.301 595.237 297.598C593.114 298.034 593.381 299.332 592.488 300.897C591.251 303.051 586.539 303.455 585.569 300.729C585.367 299.873 585.367 298.981 585.569 298.125C585.905 295.659 585.493 292.956 583.844 291.092C581.507 288.458 577.574 288.206 574.085 287.771C570.595 287.335 566.563 285.991 565.57 282.616C564.845 280.18 565.937 277.218 564.387 275.209C563.661 274.401 562.729 273.805 561.691 273.483C559.103 272.483 556.201 271.956 553.559 272.781C548.916 274.308 546.114 279.745 541.288 280.417C540.556 280.55 539.801 280.462 539.119 280.165C537.286 279.249 537.21 276.607 535.805 275.125C533.598 272.789 529.413 274.293 526.71 272.56C524.939 271.422 524.267 269.215 523.77 267.176C522.823 263.213 522.052 259.066 522.984 255.111Z" fill="black"/>
</g>
<path opacity="0.1" d="M624.399 400.617C621.07 405.115 617.267 409.277 614.32 414.034C611.372 418.791 609.287 424.343 609.906 429.902C612.96 426.771 614.35 422.449 616.275 418.524C619.527 411.881 624.399 406.245 628.492 400.136C629.256 398.968 634.303 392.233 631.761 391.912C629.668 391.645 625.537 399.082 624.399 400.617Z" fill="black"/>
<defs>
<linearGradient id="paint0_linear" x1="568.25" y1="595.812" x2="568.25" y2="215.877" gradientUnits="userSpaceOnUse">
<stop stop-color="#808080" stop-opacity="0.25"/>
<stop offset="0.54" stop-color="#808080" stop-opacity="0.12"/>
<stop offset="1" stop-color="#808080" stop-opacity="0.1"/>
</linearGradient>
</defs>
</svg>
