<svg width="690" height="471" viewBox="0 0 690 471" fill="none" xmlns="http://www.w3.org/2000/svg">
<path d="M103.538 382.758C98.5789 401.642 81.2027 413.443 81.2027 413.443C81.2027 413.443 71.8664 394.627 76.8252 375.744C81.784 356.86 99.1601 345.059 99.1601 345.059C99.1601 345.059 108.496 363.875 103.538 382.758Z" fill="#3F3D56"/>
<path d="M96.0164 378.764C82.1276 392.485 80.5737 413.432 80.5737 413.432C80.5737 413.432 101.538 412.132 115.427 398.41C129.316 384.689 130.87 363.742 130.87 363.742C130.87 363.742 109.905 365.042 96.0164 378.764Z" fill="#045EFF"/>
<path d="M113.434 407.914H59.1062C53.1472 407.914 48.3164 412.745 48.3164 418.704V429.425C48.3164 435.384 53.1472 440.215 59.1062 440.215H113.434C119.393 440.215 124.224 435.384 124.224 429.425V418.704C124.224 412.745 119.393 407.914 113.434 407.914Z" fill="#045EFF"/>
<g opacity="0.7">
<path opacity="0.7" d="M635.774 387.28V375.641H577.578V429.472C577.578 430.962 577.872 432.438 578.442 433.815C579.012 435.192 579.848 436.443 580.902 437.497C581.956 438.55 583.207 439.386 584.584 439.956C585.96 440.527 587.436 440.82 588.926 440.82H624.426C627.435 440.82 630.322 439.625 632.45 437.497C634.578 435.368 635.774 432.482 635.774 429.472V417.542C639.782 417.534 643.623 415.937 646.454 413.1C649.285 410.263 650.875 406.419 650.875 402.411C650.875 398.403 649.285 394.559 646.454 391.722C643.623 388.886 639.782 387.288 635.774 387.28ZM635.774 411.722V393.1C638.243 393.1 640.612 394.081 642.358 395.827C644.104 397.573 645.085 399.942 645.085 402.411C645.085 404.881 644.104 407.249 642.358 408.995C640.612 410.741 638.243 411.722 635.774 411.722Z" fill="url(#paint0_linear)"/>
</g>
<path d="M633.902 389.102C631.169 389.102 628.498 389.912 626.226 391.43C623.954 392.948 622.184 395.106 621.138 397.63C620.092 400.155 619.819 402.932 620.352 405.612C620.885 408.292 622.201 410.754 624.133 412.686C626.065 414.618 628.526 415.934 631.206 416.467C633.886 417 636.664 416.726 639.188 415.681C641.713 414.635 643.87 412.864 645.388 410.592C646.906 408.321 647.717 405.65 647.717 402.917C647.717 399.253 646.261 395.739 643.67 393.148C641.08 390.558 637.566 389.102 633.902 389.102ZM633.902 411.419C632.22 411.419 630.576 410.92 629.178 409.986C627.78 409.052 626.691 407.724 626.047 406.171C625.404 404.617 625.235 402.908 625.563 401.259C625.891 399.609 626.701 398.095 627.89 396.906C629.079 395.717 630.594 394.907 632.243 394.579C633.892 394.251 635.602 394.419 637.155 395.063C638.708 395.706 640.036 396.796 640.97 398.194C641.905 399.592 642.403 401.236 642.403 402.917C642.403 405.172 641.507 407.334 639.913 408.929C638.319 410.523 636.156 411.419 633.902 411.419Z" fill="#045EFF"/>
<path opacity="0.1" d="M633.902 389.102C631.169 389.102 628.498 389.912 626.226 391.43C623.954 392.948 622.184 395.106 621.138 397.63C620.092 400.155 619.819 402.932 620.352 405.612C620.885 408.292 622.201 410.754 624.133 412.686C626.065 414.618 628.526 415.934 631.206 416.467C633.886 417 636.664 416.726 639.188 415.681C641.713 414.635 643.87 412.864 645.388 410.592C646.906 408.321 647.717 405.65 647.717 402.917C647.717 399.253 646.261 395.739 643.67 393.148C641.08 390.558 637.566 389.102 633.902 389.102ZM633.902 411.419C632.22 411.419 630.576 410.92 629.178 409.986C627.78 409.052 626.691 407.724 626.047 406.171C625.404 404.617 625.235 402.908 625.563 401.259C625.891 399.609 626.701 398.095 627.89 396.906C629.079 395.717 630.594 394.907 632.243 394.579C633.892 394.251 635.602 394.419 637.155 395.063C638.708 395.706 640.036 396.796 640.97 398.194C641.905 399.592 642.403 401.236 642.403 402.917C642.403 405.172 641.507 407.334 639.913 408.929C638.319 410.523 636.156 411.419 633.902 411.419Z" fill="black"/>
<path d="M580.766 378.475H633.901V431.064C633.901 432.9 633.172 434.661 631.874 435.959C630.576 437.257 628.815 437.986 626.979 437.986H587.688C585.852 437.986 584.092 437.257 582.794 435.959C581.495 434.661 580.766 432.9 580.766 431.064V378.475Z" fill="#045EFF"/>
<path d="M689.693 437.986H0V461.366H689.693V437.986Z" fill="#E0E0E0"/>
<g opacity="0.7">
<path opacity="0.7" d="M453.649 281.556C446.257 254.725 404.35 235.132 372.818 230.788C372.823 230.59 372.833 230.393 372.833 230.194V207.227C372.867 207.214 372.901 207.204 372.935 207.192V206.321C384.125 202.159 394.224 195.508 402.466 186.87C410.708 178.231 416.878 167.832 420.51 156.459C422.459 152.935 424.155 149.278 425.586 145.514C428.952 144.289 431.495 138.738 431.495 132.068C431.507 129.787 431.187 127.516 430.545 125.327C430.958 121.93 431.169 118.512 431.176 115.09C431.189 103.127 428.687 91.2962 423.831 80.3637C418.976 69.4312 411.876 59.6419 402.992 51.6309C403.256 50.2568 403.346 48.8548 403.259 47.4583C402.546 36.4345 390.771 28.9452 379.736 28.4443C382.651 25.1374 384.567 21.071 385.262 16.7178C385.957 12.3647 385.403 7.9037 383.663 3.85336C376.626 14.1048 362.18 15.1945 349.746 15.2752C355.111 13.1974 357.526 5.7636 354.405 0.930054C341.41 18.3483 316.078 21.5738 300.621 36.8501C297.254 40.1914 294.432 44.0405 292.258 48.2569C282.213 56.2591 274.103 66.4246 268.532 77.9961C262.961 89.5676 260.073 102.247 260.082 115.09C260.089 118.481 260.296 121.868 260.702 125.235C260.039 127.451 259.709 129.754 259.722 132.068C259.722 138.768 262.288 144.336 265.677 145.528C267.114 149.304 268.818 152.974 270.777 156.508C274.396 167.816 280.525 178.159 288.706 186.763C296.887 195.368 306.908 202.011 318.019 206.196V230.194C318.019 230.379 318.029 230.561 318.033 230.745C286.381 235.015 244.14 254.762 236.814 281.809C230.487 305.166 223.733 330.817 220.373 345.877C249.175 366.115 309.611 377.999 347.487 377.999C383.473 377.999 442.291 367.273 470.245 348.845C467.217 332.297 460.251 305.52 453.649 281.556Z" fill="url(#paint1_linear)"/>
</g>
<path d="M347.41 371.337C382.125 371.337 438.864 360.99 465.831 343.213C462.91 327.25 456.189 301.419 449.821 278.302C441.71 248.861 390.519 228.451 359.981 228.451H330.554C299.922 228.451 248.656 248.979 240.648 278.546C234.544 301.078 228.03 325.822 224.788 340.35C252.573 359.873 310.873 371.337 347.41 371.337Z" fill="#045EFF"/>
<path d="M345.618 200.242C391.195 200.242 428.142 163.295 428.142 117.718C428.142 72.1411 391.195 35.1939 345.618 35.1939C300.041 35.1939 263.094 72.1411 263.094 117.718C263.094 163.295 300.041 200.242 345.618 200.242Z" fill="#1F1F1F"/>
<path opacity="0.1" d="M318.983 186.453H371.861V228.755C371.861 235.767 369.075 242.492 364.117 247.45C359.159 252.408 352.434 255.194 345.422 255.194H345.422C338.41 255.194 331.685 252.408 326.727 247.45C321.769 242.492 318.983 235.767 318.983 228.755V186.453H318.983Z" fill="black"/>
<path d="M326.568 184.495H364.276C366.288 184.495 368.217 185.294 369.64 186.716C371.062 188.138 371.861 190.068 371.861 192.079V226.797C371.861 233.809 369.075 240.533 364.117 245.492C359.159 250.45 352.434 253.235 345.422 253.235H345.422C338.41 253.235 331.685 250.45 326.727 245.492C321.769 240.533 318.983 233.809 318.983 226.797V192.079C318.983 190.068 319.782 188.138 321.205 186.716C322.627 185.294 324.556 184.495 326.568 184.495Z" fill="#C56D45"/>
<path opacity="0.1" d="M319.081 206.419C336.123 212.787 354.882 212.838 371.959 206.565V200.07H319.081V206.419Z" fill="black"/>
<path d="M345.618 209.96C387.476 209.96 421.409 176.027 421.409 134.169C421.409 92.3103 387.476 58.3774 345.618 58.3774C303.76 58.3774 269.827 92.3103 269.827 134.169C269.827 176.027 303.76 209.96 345.618 209.96Z" fill="#C56D45"/>
<path opacity="0.1" d="M291.632 65.2284C291.632 65.2284 323.573 130.065 413.677 92.4025L392.7 59.5076L355.515 46.1589L291.632 65.2284Z" fill="black"/>
<path d="M291.632 64.2749C291.632 64.2749 323.573 129.111 413.677 91.4489L392.7 58.554L355.515 45.2054L291.632 64.2749Z" fill="#1F1F1F"/>
<path d="M291.348 59.8946C293.501 53.2271 297.223 47.1737 302.2 42.2429C317.111 27.5064 341.548 24.395 354.084 7.59216C357.094 12.2549 354.765 19.4261 349.59 21.4304C361.584 21.3526 375.52 20.3014 382.308 10.4122C383.986 14.3194 384.521 18.6228 383.851 22.8221C383.18 27.0214 381.331 30.9441 378.519 34.1342C389.165 34.6174 400.523 41.842 401.211 52.4762C401.67 59.5608 397.228 66.2685 391.406 70.3315C385.584 74.3944 378.54 76.2596 371.607 77.7881C351.37 82.2501 278.142 100.952 291.348 59.8946Z" fill="#1F1F1F"/>
<path d="M421.406 134.832H419.397L380.304 169.634C342.642 151.995 314.991 169.634 314.991 169.634L273.992 136.262L269.858 136.782C270.418 156.674 278.78 175.547 293.137 189.326C307.494 203.106 326.694 210.686 346.592 210.43C366.49 210.174 385.489 202.103 399.487 187.958C413.485 173.814 421.358 154.732 421.406 134.832ZM345.503 182.983C330.758 182.983 318.805 179.994 318.805 176.308C318.805 172.622 330.758 169.634 345.503 169.634C360.247 169.634 372.2 172.622 372.2 176.308C372.2 179.994 360.247 182.983 345.503 182.983Z" fill="#1F1F1F"/>
<path d="M269.797 147.316C273.691 147.316 276.847 141.397 276.847 134.096C276.847 126.795 273.691 120.877 269.797 120.877C265.903 120.877 262.747 126.795 262.747 134.096C262.747 141.397 265.903 147.316 269.797 147.316Z" fill="#C56D45"/>
<path d="M421.399 147.316C425.293 147.316 428.449 141.397 428.449 134.096C428.449 126.795 425.293 120.877 421.399 120.877C417.505 120.877 414.349 126.795 414.349 134.096C414.349 141.397 417.505 147.316 421.399 147.316Z" fill="#C56D45"/>
<g opacity="0.7">
<path opacity="0.7" d="M481.205 269.089H208.488C202.803 269.089 198.194 273.698 198.194 279.383V427.692C198.194 433.377 202.803 437.986 208.488 437.986H481.205C486.89 437.986 491.499 433.377 491.499 427.692V279.383C491.499 273.698 486.89 269.089 481.205 269.089Z" fill="url(#paint2_linear)"/>
</g>
<path d="M467.134 272.205H222.559C212.037 272.205 203.507 280.735 203.507 291.257V418.934C203.507 429.456 212.037 437.986 222.559 437.986H467.134C477.656 437.986 486.186 429.456 486.186 418.934V291.257C486.186 280.735 477.656 272.205 467.134 272.205Z" fill="#535461"/>
<path d="M344.847 364.66C350.129 364.66 354.411 360.378 354.411 355.096C354.411 349.813 350.129 345.531 344.847 345.531C339.564 345.531 335.282 349.813 335.282 355.096C335.282 360.378 339.564 364.66 344.847 364.66Z" fill="white"/>
<path d="M660.469 461.366H29.2241V470.93H660.469V461.366Z" fill="#E0E0E0"/>
<path opacity="0.1" d="M660.469 461.366H29.2241V464.554H660.469V461.366Z" fill="black"/>
<path opacity="0.1" d="M624.337 378.475V427.625C624.337 430.373 623.246 433.008 621.303 434.951C619.359 436.895 616.724 437.986 613.976 437.986H619.29C622.038 437.986 624.673 436.895 626.616 434.951C628.559 433.008 629.651 430.373 629.651 427.625V378.475H624.337Z" fill="black"/>
<path d="M591.252 338.861C590.355 339.014 589.344 339.256 588.905 340.052C588.208 341.316 589.471 342.74 590.624 343.609C592.753 345.213 594.997 346.788 596.445 349.027C597.892 351.266 598.347 354.39 596.765 356.536C594.699 359.337 589.77 359.94 589.293 363.388C588.987 365.602 590.9 367.49 592.84 368.601C597.626 371.343 603.796 372.074 607.263 376.364C608.697 373.415 611.905 371.711 615.102 370.983C618.3 370.255 621.622 370.309 624.864 369.815C625.91 369.656 627.089 369.336 627.557 368.387C628.463 366.547 625.88 364.342 626.772 362.495C627.45 361.09 629.443 361.199 630.899 360.636C633.269 359.72 634.246 356.67 633.573 354.22C632.901 351.769 631.001 349.854 629.003 348.285C623.618 344.053 617.144 341.565 610.595 339.775C607.55 338.943 603.974 337.638 600.811 337.511C597.757 337.39 594.274 338.344 591.252 338.861Z" fill="#EEEEEE"/>
<defs>
<linearGradient id="paint0_linear" x1="614.241" y1="440.82" x2="614.241" y2="375.641" gradientUnits="userSpaceOnUse">
<stop stop-color="#808080" stop-opacity="0.25"/>
<stop offset="0.53514" stop-color="#808080" stop-opacity="0.12"/>
<stop offset="1" stop-color="#808080" stop-opacity="0.1"/>
</linearGradient>
<linearGradient id="paint1_linear" x1="150307" y1="245135" x2="150307" y2="44872.1" gradientUnits="userSpaceOnUse">
<stop stop-color="#808080" stop-opacity="0.25"/>
<stop offset="0.53514" stop-color="#808080" stop-opacity="0.12"/>
<stop offset="1" stop-color="#808080" stop-opacity="0.1"/>
</linearGradient>
<linearGradient id="paint2_linear" x1="142663" y1="104242" x2="142663" y2="64062.4" gradientUnits="userSpaceOnUse">
<stop stop-color="#808080" stop-opacity="0.25"/>
<stop offset="0.53514" stop-color="#808080" stop-opacity="0.12"/>
<stop offset="1" stop-color="#808080" stop-opacity="0.1"/>
</linearGradient>
</defs>
</svg>
